G75*
%MOIN*%
%OFA0B0*%
%FSLAX24Y24*%
%IPPOS*%
%LPD*%
%AMOC8*
5,1,8,0,0,1.08239X$1,22.5*
%
%ADD10C,0.1123*%
%ADD11C,0.0769*%
%ADD12R,0.0840X0.0280*%
%ADD13C,0.0532*%
%ADD14R,0.0651X0.0572*%
%ADD15R,0.0572X0.0651*%
%ADD16C,0.0828*%
%ADD17R,0.0611X0.0532*%
%ADD18R,0.0532X0.0611*%
%ADD19R,0.1162X0.1438*%
%ADD20R,0.1438X0.1162*%
%ADD21C,0.1005*%
%ADD22C,0.0690*%
%ADD23R,0.1312X0.0847*%
%ADD24R,0.0611X0.0611*%
%ADD25C,0.1060*%
%ADD26OC8,0.1060*%
%ADD27R,0.2029X0.0572*%
%ADD28R,0.0572X0.2029*%
%ADD29R,0.0761X0.0670*%
%ADD30C,0.1710*%
%ADD31C,0.0440*%
D10*
X014122Y002568D03*
X014831Y007292D03*
X023492Y007292D03*
D11*
X029243Y007245D03*
X029243Y005868D03*
X029243Y008623D03*
X029243Y010001D03*
X029243Y011379D03*
X029243Y012757D03*
X029243Y014135D03*
X029243Y015513D03*
X029243Y016891D03*
X029243Y018269D03*
X024988Y002568D03*
X003118Y014546D03*
X003118Y015924D03*
X003118Y017302D03*
X003118Y018680D03*
D12*
X019523Y013430D03*
X019523Y012930D03*
X019523Y012430D03*
X019523Y011930D03*
X019523Y011430D03*
X019523Y010930D03*
X019523Y010430D03*
X019523Y009930D03*
X021463Y009930D03*
X021463Y010430D03*
X021463Y010930D03*
X021463Y011430D03*
X021463Y011930D03*
X021463Y012430D03*
X021463Y012930D03*
X021463Y013430D03*
D13*
X021118Y014944D02*
X021118Y015416D01*
X022118Y015416D02*
X022118Y014944D01*
X023118Y014944D02*
X023118Y015416D01*
X020118Y015416D02*
X020118Y014944D01*
X017118Y015944D02*
X017118Y016416D01*
X016118Y016416D02*
X016118Y015944D01*
X015118Y015944D02*
X015118Y016416D01*
X014118Y016416D02*
X014118Y015944D01*
X011118Y015944D02*
X011118Y016416D01*
X010118Y016416D02*
X010118Y015944D01*
X009118Y015944D02*
X009118Y016416D01*
X008118Y016416D02*
X008118Y015944D01*
X008118Y018944D02*
X008118Y019416D01*
X010118Y019416D02*
X010118Y018944D01*
X011118Y018944D02*
X011118Y019416D01*
X014118Y019416D02*
X014118Y018944D01*
X016118Y018944D02*
X016118Y019416D01*
X017118Y019416D02*
X017118Y018944D01*
X020118Y018416D02*
X020118Y017944D01*
X022118Y017944D02*
X022118Y018416D01*
X023118Y018416D02*
X023118Y017944D01*
D14*
X024743Y014952D03*
X024743Y014283D03*
X024680Y013202D03*
X024680Y012533D03*
X023493Y011327D03*
X023493Y010658D03*
X026805Y010015D03*
X026805Y009345D03*
X026805Y007890D03*
X026805Y007220D03*
D15*
X026515Y011368D03*
X025845Y011368D03*
X025783Y012743D03*
X026452Y012743D03*
X026452Y014118D03*
X025783Y014118D03*
X025970Y016055D03*
X026640Y016055D03*
X026640Y017180D03*
X025970Y017180D03*
X025970Y018368D03*
X026640Y018368D03*
D16*
X022118Y020805D03*
X020149Y020805D03*
D17*
X005618Y017613D03*
X005618Y016747D03*
X005618Y015113D03*
X005618Y014247D03*
D18*
X005747Y019243D03*
X006613Y019243D03*
D19*
X007055Y007743D03*
X009930Y007743D03*
D20*
X008618Y005117D03*
X008618Y002243D03*
D21*
X004618Y005180D03*
X004618Y007680D03*
D22*
X004618Y010180D03*
D23*
X011118Y004164D03*
X011118Y002196D03*
D24*
X012118Y004432D03*
X012118Y005928D03*
D25*
X013180Y010680D03*
D26*
X011180Y010680D03*
D27*
X012118Y007709D03*
X012118Y006901D03*
D28*
X014464Y009493D03*
X015271Y009493D03*
D29*
X008618Y010177D03*
X007618Y010177D03*
X007618Y012933D03*
X008618Y012933D03*
D30*
X003118Y002430D03*
X003118Y021430D03*
X029118Y020180D03*
X029118Y003680D03*
D31*
X025243Y009368D03*
X022180Y009930D03*
X022180Y010930D03*
X020493Y010868D03*
X023118Y012743D03*
X022180Y012930D03*
X023993Y013180D03*
X024055Y014243D03*
X017555Y012930D03*
X016680Y012930D03*
X015180Y019430D03*
X015180Y020680D03*
X007618Y014180D03*
X005618Y013618D03*
X005618Y016180D03*
X004993Y018180D03*
X004993Y019243D03*
X005118Y021368D03*
M02*
