%
M48
M72
T01C0.0240
T02C0.0315
T03C0.0400
T04C0.0472
T05C0.0512
T06C0.0630
T07C0.0709
T08C0.1250
%
T01
X5618Y13618
X7618Y14180
X5618Y16180
X4993Y18180
X4993Y19243
X5118Y21368
X15180Y20680
X15180Y19430
X24055Y14243
X23993Y13180
X23118Y12743
X22180Y12930
X22180Y10930
X22180Y9930
X20493Y10868
X17555Y12930
X16680Y12930
X25243Y9368
T02
X8118Y16180
X9118Y16180
X10118Y16180
X11118Y16180
X14118Y16180
X15118Y16180
X16118Y16180
X17118Y16180
X20118Y15180
X21118Y15180
X22118Y15180
X23118Y15180
X23118Y18180
X22118Y18180
X20118Y18180
X17118Y19180
X16118Y19180
X14118Y19180
X11118Y19180
X10118Y19180
X8118Y19180
T03
X11180Y10680
X13180Y10680
T04
X3118Y14546
X3118Y15924
X3118Y17302
X3118Y18680
X29243Y5868
X29243Y7245
X29243Y8623
X29243Y10001
X29243Y11379
X29243Y12757
X29243Y14135
X29243Y15513
X29243Y16891
X29243Y18269
T05
X20149Y20805
X22118Y20805
T06
X4618Y5180
X4618Y7680
X4618Y10180
T07
X14831Y7292
X14122Y2568
X23492Y7292
X24988Y2568
T08
X3118Y2430
X3118Y21430
X29118Y3680
X29118Y20180
M30
