G75*
%MOIN*%
%OFA0B0*%
%FSLAX24Y24*%
%IPPOS*%
%LPD*%
%AMOC8*
5,1,8,0,0,1.08239X$1,22.5*
%
%ADD10C,0.0030*%
%ADD11C,0.0040*%
%ADD12C,0.0100*%
%ADD13C,0.0080*%
%ADD14C,0.0060*%
%ADD15C,0.0472*%
%ADD16C,0.0050*%
%ADD17R,0.0250X0.0900*%
D10*
X002445Y003383D02*
X002692Y003383D01*
X002813Y003383D02*
X003060Y003629D01*
X003060Y003691D01*
X002998Y003753D01*
X002875Y003753D01*
X002813Y003691D01*
X002568Y003753D02*
X002568Y003383D01*
X002813Y003383D02*
X003060Y003383D01*
X003182Y003444D02*
X003429Y003691D01*
X003429Y003444D01*
X003367Y003383D01*
X003243Y003383D01*
X003182Y003444D01*
X003182Y003691D01*
X003243Y003753D01*
X003367Y003753D01*
X003429Y003691D01*
X003550Y003753D02*
X003550Y003506D01*
X003673Y003383D01*
X003797Y003506D01*
X003797Y003753D01*
X003918Y003629D02*
X003918Y003383D01*
X003918Y003568D02*
X004165Y003568D01*
X004165Y003629D02*
X004165Y003383D01*
X004287Y003444D02*
X004287Y003691D01*
X004348Y003753D01*
X004472Y003753D01*
X004533Y003691D01*
X004533Y003444D02*
X004472Y003383D01*
X004348Y003383D01*
X004287Y003444D01*
X004165Y003629D02*
X004042Y003753D01*
X003918Y003629D01*
X005023Y003691D02*
X005023Y003444D01*
X005085Y003383D01*
X005208Y003383D01*
X005270Y003444D01*
X005270Y003568D01*
X005147Y003568D01*
X005270Y003691D02*
X005208Y003753D01*
X005085Y003753D01*
X005023Y003691D01*
X005392Y003629D02*
X005392Y003383D01*
X005392Y003629D02*
X005577Y003629D01*
X005638Y003568D01*
X005638Y003383D01*
X005760Y003444D02*
X005760Y003568D01*
X005822Y003629D01*
X006007Y003629D01*
X006007Y003753D02*
X006007Y003383D01*
X005822Y003383D01*
X005760Y003444D01*
X002568Y003753D02*
X002445Y003629D01*
X003632Y009659D02*
X003923Y009659D01*
X003777Y009659D02*
X003777Y009853D01*
X003777Y009954D02*
X003874Y009954D01*
X003923Y010002D01*
X003923Y010099D01*
X003874Y010147D01*
X003777Y010147D01*
X003729Y010099D01*
X003729Y010002D01*
X003777Y009954D01*
X003632Y009853D02*
X003923Y009853D01*
X003729Y010249D02*
X003729Y010345D01*
X003681Y010297D02*
X003874Y010297D01*
X003923Y010345D01*
X003858Y013195D02*
X003906Y013243D01*
X003906Y013340D01*
X003810Y013340D01*
X003906Y013437D02*
X003858Y013485D01*
X003761Y013485D01*
X003713Y013437D01*
X003713Y013243D01*
X003761Y013195D01*
X003858Y013195D01*
X004008Y013195D02*
X004008Y013388D01*
X004153Y013388D01*
X004201Y013340D01*
X004201Y013195D01*
X004302Y013243D02*
X004351Y013195D01*
X004496Y013195D01*
X004496Y013485D01*
X004496Y013388D02*
X004351Y013388D01*
X004302Y013340D01*
X004302Y013243D01*
X003317Y013243D02*
X003269Y013195D01*
X003172Y013195D01*
X003124Y013243D01*
X003124Y013437D01*
X003172Y013485D01*
X003269Y013485D01*
X003317Y013437D01*
X003022Y013388D02*
X003022Y013195D01*
X003022Y013340D02*
X002829Y013340D01*
X002829Y013388D02*
X002926Y013485D01*
X003022Y013388D01*
X002829Y013388D02*
X002829Y013195D01*
X002728Y013292D02*
X002631Y013195D01*
X002534Y013292D01*
X002534Y013485D01*
X002433Y013437D02*
X002385Y013485D01*
X002288Y013485D01*
X002240Y013437D01*
X002240Y013388D01*
X002288Y013340D01*
X002385Y013340D01*
X002433Y013292D01*
X002433Y013243D01*
X002385Y013195D01*
X002288Y013195D01*
X002240Y013243D01*
X002240Y013292D01*
X002288Y013340D01*
X002385Y013340D02*
X002433Y013388D01*
X002433Y013437D01*
X002138Y013437D02*
X002090Y013485D01*
X001993Y013485D01*
X001945Y013437D01*
X002138Y013437D02*
X002138Y013388D01*
X001945Y013195D01*
X002138Y013195D01*
X002728Y013292D02*
X002728Y013485D01*
X004838Y014118D02*
X004838Y014303D01*
X004900Y014365D01*
X005024Y014365D01*
X005085Y014303D01*
X005085Y014118D01*
X005085Y014242D02*
X005209Y014365D01*
X005209Y014486D02*
X005209Y014733D01*
X005209Y014855D02*
X004962Y015102D01*
X004900Y015102D01*
X004838Y015040D01*
X004838Y014916D01*
X004900Y014855D01*
X004838Y014610D02*
X005209Y014610D01*
X005209Y014855D02*
X005209Y015102D01*
X004838Y014610D02*
X004962Y014486D01*
X004838Y014118D02*
X005209Y014118D01*
X005209Y016618D02*
X004838Y016618D01*
X004838Y016803D01*
X004900Y016865D01*
X005024Y016865D01*
X005085Y016803D01*
X005085Y016618D01*
X005085Y016742D02*
X005209Y016865D01*
X005209Y016986D02*
X005209Y017233D01*
X005209Y017110D02*
X004838Y017110D01*
X004962Y016986D01*
X004900Y017355D02*
X004838Y017416D01*
X004838Y017540D01*
X004900Y017602D01*
X004962Y017602D01*
X005024Y017540D01*
X005085Y017602D01*
X005147Y017602D01*
X005209Y017540D01*
X005209Y017416D01*
X005147Y017355D01*
X005024Y017478D02*
X005024Y017540D01*
X005681Y019651D02*
X005681Y020022D01*
X005866Y020022D01*
X005927Y019960D01*
X005927Y019836D01*
X005866Y019775D01*
X005681Y019775D01*
X005804Y019775D02*
X005927Y019651D01*
X006049Y019651D02*
X006296Y019651D01*
X006172Y019651D02*
X006172Y020022D01*
X006049Y019898D01*
X006417Y019836D02*
X006664Y019836D01*
X006602Y019651D02*
X006602Y020022D01*
X006417Y019836D01*
X007945Y020633D02*
X007945Y020953D01*
X008105Y020953D01*
X008159Y020899D01*
X008159Y020793D01*
X008105Y020739D01*
X007945Y020739D01*
X008052Y020739D02*
X008159Y020633D01*
X008267Y020686D02*
X008267Y020793D01*
X008321Y020846D01*
X008427Y020846D01*
X008481Y020793D01*
X008481Y020739D01*
X008267Y020739D01*
X008267Y020686D02*
X008321Y020633D01*
X008427Y020633D01*
X008590Y020846D02*
X008696Y020633D01*
X008803Y020846D01*
X008912Y020686D02*
X008965Y020686D01*
X008965Y020633D01*
X008912Y020633D01*
X008912Y020686D01*
X009019Y021051D02*
X009072Y021051D01*
X009125Y021104D01*
X009125Y021371D01*
X008965Y021371D01*
X008912Y021318D01*
X008912Y021211D01*
X008965Y021158D01*
X009125Y021158D01*
X009234Y021211D02*
X009287Y021264D01*
X009448Y021264D01*
X009448Y021318D02*
X009448Y021158D01*
X009287Y021158D01*
X009234Y021211D01*
X009287Y021371D02*
X009394Y021371D01*
X009448Y021318D01*
X009556Y021371D02*
X009663Y021371D01*
X009610Y021424D02*
X009610Y021211D01*
X009663Y021158D01*
X009771Y021158D02*
X009878Y021158D01*
X009825Y021158D02*
X009825Y021371D01*
X009771Y021371D01*
X009825Y021478D02*
X009825Y021531D01*
X009879Y021683D02*
X009879Y021896D01*
X009985Y021896D02*
X009879Y021789D01*
X009770Y021789D02*
X009556Y021789D01*
X009556Y021736D02*
X009556Y021843D01*
X009610Y021896D01*
X009717Y021896D01*
X009770Y021843D01*
X009770Y021789D01*
X009717Y021683D02*
X009610Y021683D01*
X009556Y021736D01*
X009448Y021683D02*
X009448Y022003D01*
X009341Y021896D01*
X009234Y022003D01*
X009234Y021683D01*
X008804Y021683D02*
X008751Y021683D01*
X008751Y021736D01*
X008804Y021736D01*
X008804Y021683D01*
X008750Y021531D02*
X008750Y021478D01*
X008750Y021371D02*
X008750Y021158D01*
X008697Y021158D02*
X008804Y021158D01*
X008750Y021371D02*
X008697Y021371D01*
X008589Y021371D02*
X008535Y021371D01*
X008428Y021264D01*
X008428Y021158D02*
X008428Y021371D01*
X008320Y021371D02*
X008267Y021371D01*
X008160Y021264D01*
X008160Y021158D02*
X008160Y021371D01*
X008052Y021478D02*
X007945Y021478D01*
X007998Y021478D02*
X007998Y021158D01*
X007945Y021158D02*
X008052Y021158D01*
X008052Y021683D02*
X008052Y022003D01*
X007945Y022003D02*
X008159Y022003D01*
X008535Y022003D02*
X008642Y022003D01*
X008589Y022003D02*
X008589Y021736D01*
X008535Y021683D01*
X008482Y021683D01*
X008428Y021736D01*
X008321Y021736D02*
X008321Y021683D01*
X008267Y021683D01*
X008267Y021736D01*
X008321Y021736D01*
X009395Y020899D02*
X009449Y020953D01*
X009555Y020953D01*
X009609Y020899D01*
X009609Y020846D01*
X009395Y020633D01*
X009609Y020633D01*
X009718Y020526D02*
X009824Y020633D01*
X009771Y020633D01*
X009771Y020686D01*
X009824Y020686D01*
X009824Y020633D01*
X010255Y020633D02*
X010255Y020953D01*
X010415Y020953D01*
X010468Y020899D01*
X010468Y020686D01*
X010415Y020633D01*
X010255Y020633D01*
X010577Y020686D02*
X010577Y020793D01*
X010630Y020846D01*
X010737Y020846D01*
X010790Y020793D01*
X010790Y020739D01*
X010577Y020739D01*
X010577Y020686D02*
X010630Y020633D01*
X010737Y020633D01*
X010899Y020686D02*
X010953Y020633D01*
X011113Y020633D01*
X011221Y020633D02*
X011275Y020633D01*
X011275Y020686D01*
X011221Y020686D01*
X011221Y020633D01*
X011113Y020846D02*
X010953Y020846D01*
X010899Y020793D01*
X010899Y020686D01*
X011006Y021158D02*
X011113Y021158D01*
X011166Y021211D01*
X011275Y021211D02*
X011275Y021318D01*
X011329Y021371D01*
X011435Y021371D01*
X011489Y021318D01*
X011489Y021211D01*
X011435Y021158D01*
X011329Y021158D01*
X011275Y021211D01*
X011166Y021424D02*
X011113Y021478D01*
X011006Y021478D01*
X010953Y021424D01*
X010953Y021211D01*
X011006Y021158D01*
X010522Y021158D02*
X010522Y021318D01*
X010468Y021371D01*
X010308Y021371D01*
X010308Y021158D01*
X010200Y021211D02*
X010200Y021318D01*
X010146Y021371D01*
X010039Y021371D01*
X009986Y021318D01*
X009986Y021211D01*
X010039Y021158D01*
X010146Y021158D01*
X010200Y021211D01*
X010201Y021683D02*
X010361Y021683D01*
X010469Y021683D02*
X010576Y021683D01*
X010523Y021683D02*
X010523Y021896D01*
X010469Y021896D01*
X010361Y021896D02*
X010201Y021896D01*
X010147Y021843D01*
X010147Y021736D01*
X010201Y021683D01*
X010039Y021896D02*
X009985Y021896D01*
X010523Y022003D02*
X010523Y022056D01*
X010684Y021843D02*
X010738Y021896D01*
X010844Y021896D01*
X010898Y021843D01*
X010898Y021789D01*
X010684Y021789D01*
X010684Y021736D02*
X010684Y021843D01*
X010684Y021736D02*
X010738Y021683D01*
X010844Y021683D01*
X011007Y021683D02*
X011007Y021896D01*
X011113Y021896D02*
X011167Y021896D01*
X011113Y021896D02*
X011007Y021789D01*
X011597Y021371D02*
X011758Y021371D01*
X011811Y021318D01*
X011811Y021158D01*
X011973Y021211D02*
X011973Y021424D01*
X011920Y021371D02*
X012026Y021371D01*
X012135Y021371D02*
X012135Y021158D01*
X012135Y021264D02*
X012241Y021371D01*
X012295Y021371D01*
X012403Y021318D02*
X012403Y021211D01*
X012457Y021158D01*
X012563Y021158D01*
X012617Y021211D01*
X012617Y021318D01*
X012563Y021371D01*
X012457Y021371D01*
X012403Y021318D01*
X012725Y021478D02*
X012779Y021478D01*
X012779Y021158D01*
X012832Y021158D02*
X012725Y021158D01*
X012832Y020953D02*
X012672Y020793D01*
X012885Y020793D01*
X012832Y020633D02*
X012832Y020953D01*
X012456Y020953D02*
X012456Y020633D01*
X012349Y020633D02*
X012563Y020633D01*
X012349Y020846D02*
X012456Y020953D01*
X012241Y020899D02*
X012027Y020686D01*
X012081Y020633D01*
X012187Y020633D01*
X012241Y020686D01*
X012241Y020899D01*
X012187Y020953D01*
X012081Y020953D01*
X012027Y020899D01*
X012027Y020686D01*
X011918Y020633D02*
X011705Y020633D01*
X011918Y020846D01*
X011918Y020899D01*
X011865Y020953D01*
X011758Y020953D01*
X011705Y020899D01*
X011597Y021158D02*
X011597Y021371D01*
X011973Y021211D02*
X012026Y021158D01*
X015445Y021570D02*
X015692Y021817D01*
X015692Y021879D01*
X015630Y021940D01*
X015507Y021940D01*
X015445Y021879D01*
X015445Y021570D02*
X015692Y021570D01*
X015813Y021632D02*
X015813Y021693D01*
X015875Y021755D01*
X015998Y021755D01*
X016060Y021693D01*
X016060Y021632D01*
X015998Y021570D01*
X015875Y021570D01*
X015813Y021632D01*
X015875Y021755D02*
X015813Y021817D01*
X015813Y021879D01*
X015875Y021940D01*
X015998Y021940D01*
X016060Y021879D01*
X016060Y021817D01*
X015998Y021755D01*
X016182Y021693D02*
X016305Y021570D01*
X016429Y021693D01*
X016429Y021940D01*
X016550Y021817D02*
X016673Y021940D01*
X016797Y021817D01*
X016797Y021570D01*
X016918Y021632D02*
X016980Y021570D01*
X017103Y021570D01*
X017165Y021632D01*
X017165Y021879D02*
X017103Y021940D01*
X016980Y021940D01*
X016918Y021879D01*
X016918Y021632D01*
X016797Y021755D02*
X016550Y021755D01*
X016550Y021817D02*
X016550Y021570D01*
X016182Y021693D02*
X016182Y021940D01*
X017655Y021879D02*
X017655Y021632D01*
X017717Y021570D01*
X017840Y021570D01*
X017902Y021632D01*
X017902Y021755D01*
X017778Y021755D01*
X017655Y021879D02*
X017717Y021940D01*
X017840Y021940D01*
X017902Y021879D01*
X018023Y021817D02*
X018023Y021570D01*
X018023Y021817D02*
X018208Y021817D01*
X018270Y021755D01*
X018270Y021570D01*
X018392Y021632D02*
X018392Y021755D01*
X018453Y021817D01*
X018638Y021817D01*
X018638Y021940D02*
X018638Y021570D01*
X018453Y021570D01*
X018392Y021632D01*
X023758Y021570D02*
X024004Y021817D01*
X024004Y021879D01*
X023943Y021940D01*
X023819Y021940D01*
X023758Y021879D01*
X023758Y021570D02*
X024004Y021570D01*
X024126Y021632D02*
X024126Y021693D01*
X024188Y021755D01*
X024311Y021755D01*
X024373Y021693D01*
X024373Y021632D01*
X024311Y021570D01*
X024188Y021570D01*
X024126Y021632D01*
X024188Y021755D02*
X024126Y021817D01*
X024126Y021879D01*
X024188Y021940D01*
X024311Y021940D01*
X024373Y021879D01*
X024373Y021817D01*
X024311Y021755D01*
X024494Y021693D02*
X024618Y021570D01*
X024741Y021693D01*
X024741Y021940D01*
X024862Y021817D02*
X024862Y021570D01*
X024862Y021755D02*
X025109Y021755D01*
X025109Y021817D02*
X025109Y021570D01*
X025231Y021632D02*
X025292Y021570D01*
X025416Y021570D01*
X025478Y021632D01*
X025478Y021879D02*
X025416Y021940D01*
X025292Y021940D01*
X025231Y021879D01*
X025231Y021632D01*
X025109Y021817D02*
X024986Y021940D01*
X024862Y021817D01*
X024494Y021940D02*
X024494Y021693D01*
X025967Y021755D02*
X026214Y021755D01*
X026336Y021755D02*
X026336Y021632D01*
X026397Y021570D01*
X026521Y021570D01*
X026583Y021632D01*
X026583Y021755D01*
X026521Y021817D01*
X026397Y021817D01*
X026336Y021755D01*
X026214Y021940D02*
X026214Y021570D01*
X025967Y021570D02*
X025967Y021940D01*
X026704Y021817D02*
X026827Y021817D01*
X026766Y021879D02*
X026766Y021632D01*
X026827Y021570D01*
X019521Y014007D02*
X019208Y013693D01*
X019364Y013693D02*
X019364Y014007D01*
X019208Y014007D02*
X019521Y013693D01*
X019521Y013850D02*
X019208Y013850D01*
X019898Y009485D02*
X019994Y009388D01*
X020091Y009485D01*
X020091Y009195D01*
X020192Y009195D02*
X020192Y009485D01*
X020289Y009388D01*
X020386Y009485D01*
X020386Y009195D01*
X020487Y009195D02*
X020487Y009485D01*
X020632Y009485D01*
X020680Y009437D01*
X020680Y009340D01*
X020632Y009292D01*
X020487Y009292D01*
X020781Y009243D02*
X020830Y009195D01*
X020927Y009195D01*
X020975Y009243D01*
X020975Y009437D01*
X020927Y009485D01*
X020830Y009485D01*
X020781Y009437D01*
X020781Y009243D01*
X020878Y009292D02*
X020975Y009195D01*
X021076Y009195D02*
X021270Y009388D01*
X021270Y009437D01*
X021221Y009485D01*
X021124Y009485D01*
X021076Y009437D01*
X021076Y009195D02*
X021270Y009195D01*
X021371Y009195D02*
X021564Y009388D01*
X021564Y009437D01*
X021516Y009485D01*
X021419Y009485D01*
X021371Y009437D01*
X021371Y009195D02*
X021564Y009195D01*
X021665Y009195D02*
X021859Y009388D01*
X021859Y009437D01*
X021811Y009485D01*
X021714Y009485D01*
X021665Y009437D01*
X021665Y009195D02*
X021859Y009195D01*
X021960Y009195D02*
X022154Y009388D01*
X022154Y009437D01*
X022105Y009485D01*
X022008Y009485D01*
X021960Y009437D01*
X021960Y009195D02*
X022154Y009195D01*
X022255Y009195D02*
X022255Y009388D01*
X022351Y009485D01*
X022448Y009388D01*
X022448Y009195D01*
X022448Y009340D02*
X022255Y009340D01*
X019898Y009195D02*
X019898Y009485D01*
X013228Y003573D02*
X013166Y003511D01*
X012919Y003511D01*
X012981Y003449D02*
X012981Y003573D01*
X013042Y003328D02*
X012981Y003266D01*
X012981Y003143D01*
X013042Y003081D01*
X013166Y003081D01*
X013228Y003143D01*
X013228Y003266D01*
X013166Y003328D01*
X013042Y003328D01*
X012628Y003388D02*
X012628Y003574D01*
X012257Y003574D01*
X012381Y003574D02*
X012381Y003388D01*
X012442Y003327D01*
X012566Y003327D01*
X012628Y003388D01*
X012504Y003205D02*
X012504Y002958D01*
X012442Y002958D02*
X012381Y003020D01*
X012381Y003144D01*
X012442Y003205D01*
X012504Y003205D01*
X012628Y003144D02*
X012628Y003020D01*
X012566Y002958D01*
X012442Y002958D01*
X012442Y002837D02*
X012628Y002837D01*
X012442Y002837D02*
X012381Y002775D01*
X012381Y002652D01*
X012442Y002590D01*
X012381Y002469D02*
X012381Y002283D01*
X012442Y002222D01*
X012566Y002222D01*
X012628Y002283D01*
X012628Y002469D01*
X012628Y002590D02*
X012257Y002590D01*
X012857Y002713D02*
X013228Y002713D01*
X013042Y002713D02*
X013042Y002960D01*
X012857Y002960D02*
X013228Y002960D01*
X012628Y002100D02*
X012566Y002038D01*
X012319Y002038D01*
X012381Y001976D02*
X012381Y002100D01*
X012381Y001792D02*
X012628Y001792D01*
X012628Y001731D02*
X012628Y001854D01*
X012566Y001609D02*
X012381Y001609D01*
X012381Y001731D02*
X012381Y001792D01*
X012257Y001792D02*
X012195Y001792D01*
X012566Y001609D02*
X012628Y001547D01*
X012566Y001486D01*
X012628Y001424D01*
X012566Y001362D01*
X012381Y001362D01*
X012319Y001241D02*
X012257Y001179D01*
X012257Y001056D01*
X012319Y000994D01*
X012381Y000994D01*
X012442Y001056D01*
X012442Y001179D01*
X012504Y001241D01*
X012566Y001241D01*
X012628Y001179D01*
X012628Y001056D01*
X012566Y000994D01*
D11*
X012656Y004712D02*
X012656Y004942D01*
X012733Y005019D01*
X013039Y005019D01*
X013116Y004942D01*
X013116Y004712D01*
X012656Y004712D01*
X012809Y005173D02*
X012656Y005326D01*
X013116Y005326D01*
X013116Y005173D02*
X013116Y005480D01*
X016102Y008700D02*
X016102Y009007D01*
X016256Y009160D01*
X016409Y009007D01*
X016409Y008700D01*
X016563Y008700D02*
X016870Y008700D01*
X017023Y008700D02*
X017023Y009160D01*
X017330Y009160D01*
X017483Y009007D02*
X017637Y009160D01*
X017637Y008700D01*
X017790Y008700D02*
X017483Y008700D01*
X017176Y008930D02*
X017023Y008930D01*
X016563Y009160D02*
X016563Y008700D01*
X016409Y008930D02*
X016102Y008930D01*
X017944Y009160D02*
X018251Y009160D01*
X018097Y009160D02*
X018097Y008700D01*
X018404Y008777D02*
X018711Y009084D01*
X018711Y008777D01*
X018634Y008700D01*
X018481Y008700D01*
X018404Y008777D01*
X018404Y009084D01*
X018481Y009160D01*
X018634Y009160D01*
X018711Y009084D01*
X018865Y009160D02*
X018865Y008930D01*
X019018Y009007D01*
X019095Y009007D01*
X019172Y008930D01*
X019172Y008777D01*
X019095Y008700D01*
X018941Y008700D01*
X018865Y008777D01*
X018865Y009160D02*
X019172Y009160D01*
X022775Y011939D02*
X022852Y011863D01*
X023005Y011863D01*
X023082Y011939D01*
X023082Y012016D01*
X023005Y012093D01*
X022928Y012093D01*
X023005Y012093D02*
X023082Y012169D01*
X023082Y012246D01*
X023005Y012323D01*
X022852Y012323D01*
X022775Y012246D01*
X023235Y012246D02*
X023312Y012323D01*
X023466Y012323D01*
X023542Y012246D01*
X023542Y012169D01*
X023235Y011863D01*
X023542Y011863D01*
X023696Y012093D02*
X024003Y012093D01*
X024156Y012016D02*
X024386Y012169D01*
X024156Y012016D02*
X024386Y011863D01*
X024156Y011863D02*
X024156Y012323D01*
X023926Y012323D02*
X023696Y012093D01*
X023926Y011863D02*
X023926Y012323D01*
X025338Y012184D02*
X025414Y012260D01*
X025568Y012260D01*
X025644Y012184D01*
X025644Y012107D01*
X025568Y012030D01*
X025644Y011953D01*
X025644Y011877D01*
X025568Y011800D01*
X025414Y011800D01*
X025338Y011877D01*
X025491Y012030D02*
X025568Y012030D01*
X025798Y012184D02*
X025875Y012260D01*
X026028Y012260D01*
X026105Y012184D01*
X026105Y012107D01*
X025798Y011800D01*
X026105Y011800D01*
X026258Y011800D02*
X026335Y011800D01*
X026335Y011877D01*
X026258Y011877D01*
X026258Y011800D01*
X026488Y012030D02*
X026795Y012030D01*
X026949Y011953D02*
X027179Y012107D01*
X026949Y012260D02*
X026949Y011800D01*
X026949Y011953D02*
X027179Y011800D01*
X026719Y011800D02*
X026719Y012260D01*
X026488Y012030D01*
X026335Y013175D02*
X026258Y013175D01*
X026258Y013252D01*
X026335Y013252D01*
X026335Y013175D01*
X026105Y013175D02*
X025798Y013175D01*
X026105Y013482D01*
X026105Y013559D01*
X026028Y013635D01*
X025875Y013635D01*
X025798Y013559D01*
X025644Y013559D02*
X025644Y013482D01*
X025568Y013405D01*
X025644Y013328D01*
X025644Y013252D01*
X025568Y013175D01*
X025414Y013175D01*
X025338Y013252D01*
X025491Y013405D02*
X025568Y013405D01*
X025644Y013559D02*
X025568Y013635D01*
X025414Y013635D01*
X025338Y013559D01*
X024386Y013488D02*
X024156Y013641D01*
X024386Y013794D01*
X024156Y013948D02*
X024156Y013488D01*
X023926Y013488D02*
X023926Y013948D01*
X023696Y013718D01*
X024003Y013718D01*
X023542Y013794D02*
X023542Y013871D01*
X023466Y013948D01*
X023312Y013948D01*
X023235Y013871D01*
X023082Y013871D02*
X023005Y013948D01*
X022852Y013948D01*
X022775Y013871D01*
X022928Y013718D02*
X023005Y013718D01*
X023082Y013641D01*
X023082Y013564D01*
X023005Y013488D01*
X022852Y013488D01*
X022775Y013564D01*
X023005Y013718D02*
X023082Y013794D01*
X023082Y013871D01*
X023235Y013488D02*
X023542Y013794D01*
X023542Y013488D02*
X023235Y013488D01*
X023900Y015488D02*
X024207Y015794D01*
X024207Y015871D01*
X024130Y015948D01*
X023977Y015948D01*
X023900Y015871D01*
X024360Y015871D02*
X024437Y015948D01*
X024591Y015948D01*
X024667Y015871D01*
X024360Y015564D01*
X024437Y015488D01*
X024591Y015488D01*
X024667Y015564D01*
X024667Y015871D01*
X024821Y015948D02*
X024821Y015488D01*
X024821Y015641D02*
X025051Y015488D01*
X024821Y015641D02*
X025051Y015794D01*
X024360Y015871D02*
X024360Y015564D01*
X024207Y015488D02*
X023900Y015488D01*
X025838Y014996D02*
X025914Y015073D01*
X026068Y015073D01*
X026144Y014996D01*
X026144Y014919D01*
X025838Y014613D01*
X026144Y014613D01*
X026298Y014613D02*
X026298Y015073D01*
X026528Y014919D02*
X026298Y014766D01*
X026528Y014613D01*
X026719Y013635D02*
X026488Y013405D01*
X026795Y013405D01*
X026949Y013328D02*
X027179Y013482D01*
X026949Y013635D02*
X026949Y013175D01*
X026949Y013328D02*
X027179Y013175D01*
X026719Y013175D02*
X026719Y013635D01*
X027441Y010679D02*
X027594Y010449D01*
X027748Y010679D01*
X027748Y010449D02*
X027287Y010449D01*
X027287Y010219D02*
X027517Y009988D01*
X027517Y010295D01*
X027287Y010219D02*
X027748Y010219D01*
X027748Y009835D02*
X027748Y009758D01*
X027671Y009758D01*
X027671Y009835D01*
X027748Y009835D01*
X027748Y009605D02*
X027748Y009298D01*
X027441Y009605D01*
X027364Y009605D01*
X027287Y009528D01*
X027287Y009375D01*
X027364Y009298D01*
X027364Y009144D02*
X027287Y009068D01*
X027287Y008914D01*
X027364Y008838D01*
X027517Y008991D02*
X027517Y009068D01*
X027594Y009144D01*
X027671Y009144D01*
X027748Y009068D01*
X027748Y008914D01*
X027671Y008838D01*
X027517Y009068D02*
X027441Y009144D01*
X027364Y009144D01*
X027453Y008097D02*
X027607Y007866D01*
X027760Y008097D01*
X027760Y007866D02*
X027300Y007866D01*
X027300Y007636D02*
X027530Y007406D01*
X027530Y007713D01*
X027760Y007636D02*
X027300Y007636D01*
X027376Y007252D02*
X027300Y007176D01*
X027300Y007022D01*
X027376Y006946D01*
X027376Y006792D02*
X027300Y006715D01*
X027300Y006562D01*
X027376Y006485D01*
X027530Y006639D02*
X027530Y006715D01*
X027607Y006792D01*
X027683Y006792D01*
X027760Y006715D01*
X027760Y006562D01*
X027683Y006485D01*
X027530Y006715D02*
X027453Y006792D01*
X027376Y006792D01*
X027760Y006946D02*
X027453Y007252D01*
X027376Y007252D01*
X027760Y007252D02*
X027760Y006946D01*
X026109Y002660D02*
X026109Y002140D01*
X026278Y002227D02*
X026365Y002140D01*
X026538Y002140D01*
X026625Y002227D01*
X026625Y002400D01*
X026538Y002487D01*
X026365Y002487D01*
X026278Y002400D01*
X026278Y002227D01*
X026109Y002400D02*
X025762Y002400D01*
X025762Y002140D02*
X025762Y002660D01*
X026794Y002487D02*
X026967Y002487D01*
X026880Y002574D02*
X026880Y002227D01*
X026967Y002140D01*
X008362Y009217D02*
X008286Y009140D01*
X008132Y009140D01*
X008055Y009217D01*
X008055Y009371D02*
X008209Y009447D01*
X008286Y009447D01*
X008362Y009371D01*
X008362Y009217D01*
X008055Y009371D02*
X008055Y009601D01*
X008362Y009601D01*
X007748Y009601D02*
X007748Y009140D01*
X007595Y009140D02*
X007902Y009140D01*
X007595Y009447D02*
X007748Y009601D01*
X007441Y009524D02*
X007441Y009371D01*
X007365Y009294D01*
X007135Y009294D01*
X007288Y009294D02*
X007441Y009140D01*
X007135Y009140D02*
X007135Y009601D01*
X007365Y009601D01*
X007441Y009524D01*
X006702Y012138D02*
X006615Y012224D01*
X006615Y012571D01*
X006528Y012484D02*
X006702Y012484D01*
X006360Y012398D02*
X006360Y012224D01*
X006273Y012138D01*
X006099Y012138D01*
X006013Y012224D01*
X006013Y012398D01*
X006099Y012484D01*
X006273Y012484D01*
X006360Y012398D01*
X005844Y012398D02*
X005497Y012398D01*
X005497Y012138D02*
X005497Y012658D01*
X005844Y012658D02*
X005844Y012138D01*
X004813Y012224D02*
X004726Y012138D01*
X004552Y012138D01*
X004466Y012224D01*
X004466Y012571D01*
X004552Y012658D01*
X004726Y012658D01*
X004813Y012571D01*
X004297Y012484D02*
X004297Y012138D01*
X004297Y012398D02*
X003950Y012398D01*
X003950Y012484D02*
X004124Y012658D01*
X004297Y012484D01*
X003950Y012484D02*
X003950Y012138D01*
X003781Y012311D02*
X003781Y012658D01*
X003434Y012658D02*
X003434Y012311D01*
X003608Y012138D01*
X003781Y012311D01*
X003266Y012224D02*
X003179Y012138D01*
X003006Y012138D01*
X002919Y012224D01*
X003266Y012571D01*
X003266Y012224D01*
X002919Y012224D02*
X002919Y012571D01*
X003006Y012658D01*
X003179Y012658D01*
X003266Y012571D01*
X002750Y012571D02*
X002750Y012484D01*
X002403Y012138D01*
X002750Y012138D01*
X002750Y012571D02*
X002663Y012658D01*
X002490Y012658D01*
X002403Y012571D01*
X002061Y012658D02*
X002061Y012138D01*
X001888Y012138D02*
X002234Y012138D01*
X001888Y012484D02*
X002061Y012658D01*
X002541Y009297D02*
X002541Y009143D01*
X002464Y009220D02*
X002771Y009220D01*
X002848Y009297D01*
X002848Y008990D02*
X002617Y008990D01*
X002541Y008913D01*
X002541Y008683D01*
X002848Y008683D01*
X002771Y008529D02*
X002617Y008529D01*
X002541Y008452D01*
X002541Y008299D01*
X002617Y008222D01*
X002771Y008222D01*
X002848Y008299D01*
X002848Y008452D01*
X002771Y008529D01*
X002541Y008069D02*
X002541Y007992D01*
X002694Y007839D01*
X002541Y007839D02*
X002848Y007839D01*
X002387Y007685D02*
X002387Y007378D01*
X002848Y007378D01*
X002617Y007378D02*
X002617Y007532D01*
X002617Y006764D02*
X002541Y006688D01*
X002541Y006534D01*
X002617Y006457D01*
X002771Y006457D01*
X002848Y006534D01*
X002848Y006688D01*
X002694Y006764D02*
X002694Y006457D01*
X002541Y006304D02*
X002541Y006074D01*
X002617Y005997D01*
X002771Y005997D01*
X002848Y006074D01*
X002848Y006304D01*
X002924Y006304D02*
X002541Y006304D01*
X002924Y006304D02*
X003001Y006227D01*
X003001Y006151D01*
X002848Y005844D02*
X002848Y005613D01*
X002771Y005537D01*
X002694Y005613D01*
X002694Y005844D01*
X002617Y005844D02*
X002848Y005844D01*
X002617Y005844D02*
X002541Y005767D01*
X002541Y005613D01*
X002464Y005383D02*
X002387Y005306D01*
X002387Y005153D01*
X002464Y005076D01*
X002771Y005076D01*
X002848Y005153D01*
X002848Y005306D01*
X002771Y005383D01*
X002694Y006764D02*
X002617Y006764D01*
X006640Y002924D02*
X006717Y002771D01*
X006870Y002618D01*
X006870Y002848D01*
X006947Y002924D01*
X007024Y002924D01*
X007100Y002848D01*
X007100Y002694D01*
X007024Y002618D01*
X006870Y002618D01*
X007100Y002464D02*
X007100Y002157D01*
X007100Y002004D02*
X006947Y001850D01*
X006947Y001927D02*
X006947Y001697D01*
X007100Y001697D02*
X006640Y001697D01*
X006640Y001927D01*
X006717Y002004D01*
X006870Y002004D01*
X006947Y001927D01*
X006794Y002157D02*
X006640Y002311D01*
X007100Y002311D01*
X025494Y018850D02*
X025801Y018850D01*
X025647Y018850D02*
X025647Y019310D01*
X025494Y019157D01*
X025954Y019157D02*
X026031Y019080D01*
X026184Y019080D01*
X026261Y019003D01*
X026261Y018927D01*
X026184Y018850D01*
X026031Y018850D01*
X025954Y018927D01*
X025954Y019003D01*
X026031Y019080D01*
X025954Y019157D02*
X025954Y019234D01*
X026031Y019310D01*
X026184Y019310D01*
X026261Y019234D01*
X026261Y019157D01*
X026184Y019080D01*
X026415Y018927D02*
X026415Y018850D01*
X026415Y018927D02*
X026722Y019234D01*
X026722Y019310D01*
X026415Y019310D01*
D12*
X027368Y019555D02*
X025243Y019555D01*
X025243Y015493D01*
X027368Y015493D01*
X027368Y015555D02*
X027368Y019555D01*
D13*
X023338Y019151D02*
X023338Y022104D01*
X018929Y022104D01*
X018929Y019151D01*
X023338Y019151D01*
X009870Y008943D02*
X009870Y008510D01*
X009870Y008943D02*
X007115Y008943D01*
X007115Y008510D01*
X007115Y006975D02*
X007115Y006542D01*
X009870Y006542D01*
X009870Y006975D01*
X009818Y005058D02*
X009385Y005058D01*
X009818Y005058D02*
X009818Y002302D01*
X009385Y002302D01*
X007850Y002302D02*
X007417Y002302D01*
X007417Y005058D01*
X007850Y005058D01*
X013413Y008180D02*
X013413Y001680D01*
X025697Y001680D01*
X025697Y008180D01*
X013413Y008180D01*
X006389Y011676D02*
X001468Y011676D01*
X001700Y013641D02*
X004456Y013641D01*
X004456Y019586D01*
X001700Y019586D01*
X001700Y013641D01*
D14*
X007063Y016436D02*
X007226Y016599D01*
X007553Y016599D01*
X007471Y016779D02*
X007144Y016779D01*
X007063Y016861D01*
X007063Y017024D01*
X007144Y017106D01*
X007471Y017106D01*
X007553Y017024D01*
X007553Y016861D01*
X007471Y016779D01*
X007390Y016942D02*
X007553Y017106D01*
X007553Y017285D02*
X007063Y017285D01*
X007308Y017285D02*
X007308Y017612D01*
X007144Y017792D02*
X007063Y017874D01*
X007063Y018037D01*
X007144Y018119D01*
X007226Y018119D01*
X007553Y017792D01*
X007553Y018119D01*
X007553Y018298D02*
X007553Y018625D01*
X007553Y018462D02*
X007063Y018462D01*
X007226Y018298D01*
X007144Y018805D02*
X007063Y018886D01*
X007063Y019050D01*
X007144Y019132D01*
X007226Y019132D01*
X007308Y019050D01*
X007390Y019132D01*
X007471Y019132D01*
X007553Y019050D01*
X007553Y018886D01*
X007471Y018805D01*
X007308Y018968D02*
X007308Y019050D01*
X007716Y018918D02*
X007716Y016442D01*
X011519Y016442D01*
X011519Y018918D01*
X007716Y018918D01*
X007553Y017612D02*
X007063Y017612D01*
X007308Y016599D02*
X007308Y016273D01*
X007226Y016273D02*
X007063Y016436D01*
X007226Y016273D02*
X007553Y016273D01*
X007206Y012807D02*
X007206Y011128D01*
X007206Y010716D01*
X007206Y010303D01*
X007206Y010716D02*
X007233Y010718D01*
X007259Y010723D01*
X007285Y010732D01*
X007309Y010744D01*
X007331Y010759D01*
X007352Y010776D01*
X007369Y010797D01*
X007384Y010819D01*
X007396Y010843D01*
X007405Y010869D01*
X007410Y010895D01*
X007412Y010922D01*
X007410Y010949D01*
X007405Y010975D01*
X007396Y011001D01*
X007384Y011025D01*
X007369Y011047D01*
X007352Y011068D01*
X007331Y011085D01*
X007309Y011100D01*
X007285Y011112D01*
X007259Y011121D01*
X007233Y011126D01*
X007206Y011128D01*
X009029Y010303D02*
X009029Y012807D01*
X011730Y010680D02*
X011930Y010680D01*
X010180Y010680D02*
X010182Y010769D01*
X010188Y010858D01*
X010198Y010947D01*
X010212Y011035D01*
X010229Y011122D01*
X010251Y011208D01*
X010277Y011294D01*
X010306Y011378D01*
X010339Y011461D01*
X010375Y011542D01*
X010416Y011622D01*
X010459Y011699D01*
X010506Y011775D01*
X010557Y011848D01*
X010610Y011919D01*
X010667Y011988D01*
X010727Y012054D01*
X010790Y012118D01*
X010855Y012178D01*
X010923Y012236D01*
X010994Y012290D01*
X011067Y012341D01*
X011142Y012389D01*
X011219Y012434D01*
X011298Y012475D01*
X011379Y012512D01*
X011461Y012546D01*
X011545Y012577D01*
X011630Y012603D01*
X011716Y012626D01*
X011803Y012644D01*
X011891Y012659D01*
X011980Y012670D01*
X012069Y012677D01*
X012158Y012680D01*
X012247Y012679D01*
X012336Y012674D01*
X012424Y012665D01*
X012513Y012652D01*
X012600Y012635D01*
X012687Y012615D01*
X012773Y012590D01*
X012857Y012562D01*
X012940Y012530D01*
X013022Y012494D01*
X013102Y012455D01*
X013180Y012412D01*
X013256Y012366D01*
X013330Y012316D01*
X013402Y012263D01*
X013471Y012207D01*
X013538Y012148D01*
X013602Y012086D01*
X013663Y012022D01*
X013722Y011954D01*
X013777Y011884D01*
X013829Y011812D01*
X013878Y011737D01*
X013923Y011661D01*
X013965Y011582D01*
X014003Y011502D01*
X014038Y011420D01*
X014069Y011336D01*
X014097Y011251D01*
X014120Y011165D01*
X014140Y011078D01*
X014156Y010991D01*
X014168Y010902D01*
X014176Y010814D01*
X014180Y010725D01*
X014180Y010635D01*
X014176Y010546D01*
X014168Y010458D01*
X014156Y010369D01*
X014140Y010282D01*
X014120Y010195D01*
X014097Y010109D01*
X014069Y010024D01*
X014038Y009940D01*
X014003Y009858D01*
X013965Y009778D01*
X013923Y009699D01*
X013878Y009623D01*
X013829Y009548D01*
X013777Y009476D01*
X013722Y009406D01*
X013663Y009338D01*
X013602Y009274D01*
X013538Y009212D01*
X013471Y009153D01*
X013402Y009097D01*
X013330Y009044D01*
X013256Y008994D01*
X013180Y008948D01*
X013102Y008905D01*
X013022Y008866D01*
X012940Y008830D01*
X012857Y008798D01*
X012773Y008770D01*
X012687Y008745D01*
X012600Y008725D01*
X012513Y008708D01*
X012424Y008695D01*
X012336Y008686D01*
X012247Y008681D01*
X012158Y008680D01*
X012069Y008683D01*
X011980Y008690D01*
X011891Y008701D01*
X011803Y008716D01*
X011716Y008734D01*
X011630Y008757D01*
X011545Y008783D01*
X011461Y008814D01*
X011379Y008848D01*
X011298Y008885D01*
X011219Y008926D01*
X011142Y008971D01*
X011067Y009019D01*
X010994Y009070D01*
X010923Y009124D01*
X010855Y009182D01*
X010790Y009242D01*
X010727Y009306D01*
X010667Y009372D01*
X010610Y009441D01*
X010557Y009512D01*
X010506Y009585D01*
X010459Y009661D01*
X010416Y009738D01*
X010375Y009818D01*
X010339Y009899D01*
X010306Y009982D01*
X010277Y010066D01*
X010251Y010152D01*
X010229Y010238D01*
X010212Y010325D01*
X010198Y010413D01*
X010188Y010502D01*
X010182Y010591D01*
X010180Y010680D01*
X012280Y010230D02*
X012530Y010230D01*
X012530Y010680D01*
X012530Y011130D01*
X012280Y011130D01*
X012280Y010230D01*
X012530Y010680D02*
X012630Y010680D01*
X013530Y010180D02*
X013830Y010180D01*
X013680Y010030D02*
X013680Y010330D01*
X019983Y009710D02*
X021003Y009710D01*
X022003Y010430D02*
X022403Y010430D01*
X021003Y013650D02*
X020613Y013650D01*
X020373Y013650D01*
X019983Y013650D01*
X020373Y013650D02*
X020375Y013629D01*
X020380Y013609D01*
X020389Y013590D01*
X020401Y013573D01*
X020416Y013558D01*
X020433Y013546D01*
X020452Y013537D01*
X020472Y013532D01*
X020493Y013530D01*
X020514Y013532D01*
X020534Y013537D01*
X020553Y013546D01*
X020570Y013558D01*
X020585Y013573D01*
X020597Y013590D01*
X020606Y013609D01*
X020611Y013629D01*
X020613Y013650D01*
X019491Y015273D02*
X019164Y015273D01*
X019000Y015436D01*
X019164Y015599D01*
X019491Y015599D01*
X019409Y015779D02*
X019491Y015861D01*
X019491Y016024D01*
X019409Y016106D01*
X019082Y016106D01*
X019000Y016024D01*
X019000Y015861D01*
X019082Y015779D01*
X019409Y015779D01*
X019327Y015942D02*
X019491Y016106D01*
X019491Y016285D02*
X019000Y016285D01*
X019245Y016285D02*
X019245Y016612D01*
X019082Y016792D02*
X019000Y016874D01*
X019000Y017037D01*
X019082Y017119D01*
X019164Y017119D01*
X019491Y016792D01*
X019491Y017119D01*
X019491Y017298D02*
X019491Y017625D01*
X019491Y017462D02*
X019000Y017462D01*
X019164Y017298D01*
X019082Y017805D02*
X019000Y017886D01*
X019000Y018050D01*
X019082Y018132D01*
X019164Y018132D01*
X019245Y018050D01*
X019327Y018132D01*
X019409Y018132D01*
X019491Y018050D01*
X019491Y017886D01*
X019409Y017805D01*
X019245Y017968D02*
X019245Y018050D01*
X019716Y017918D02*
X019716Y015442D01*
X023519Y015442D01*
X023519Y017918D01*
X019716Y017918D01*
X019491Y016612D02*
X019000Y016612D01*
X019245Y015599D02*
X019245Y015273D01*
X017519Y016442D02*
X017519Y018918D01*
X013716Y018918D01*
X013716Y016442D01*
X017519Y016442D01*
X013428Y016335D02*
X013101Y016335D01*
X012938Y016498D01*
X013101Y016662D01*
X013428Y016662D01*
X013346Y016841D02*
X013019Y016841D01*
X012938Y016923D01*
X012938Y017087D01*
X013019Y017168D01*
X013346Y017168D01*
X013428Y017087D01*
X013428Y016923D01*
X013346Y016841D01*
X013265Y017005D02*
X013428Y017168D01*
X013428Y017348D02*
X012938Y017348D01*
X013183Y017348D02*
X013183Y017675D01*
X013019Y017854D02*
X012938Y017936D01*
X012938Y018100D01*
X013019Y018181D01*
X013101Y018181D01*
X013428Y017854D01*
X013428Y018181D01*
X013428Y018361D02*
X013428Y018688D01*
X013428Y018524D02*
X012938Y018524D01*
X013101Y018361D01*
X013019Y018867D02*
X012938Y018949D01*
X012938Y019112D01*
X013019Y019194D01*
X013101Y019194D01*
X013183Y019112D01*
X013265Y019194D01*
X013346Y019194D01*
X013428Y019112D01*
X013428Y018949D01*
X013346Y018867D01*
X013183Y019031D02*
X013183Y019112D01*
X012938Y017675D02*
X013428Y017675D01*
X013183Y016662D02*
X013183Y016335D01*
D15*
X014106Y016971D03*
X008106Y016971D03*
X020106Y015971D03*
D16*
X013275Y011925D02*
X012975Y011925D01*
X012975Y011475D01*
X012814Y011475D02*
X012814Y011775D01*
X012975Y011700D02*
X013125Y011700D01*
X012814Y011475D02*
X012589Y011475D01*
X012514Y011550D01*
X012514Y011775D01*
X012354Y011850D02*
X012054Y011550D01*
X012054Y011475D01*
X011819Y011475D02*
X011819Y011925D01*
X011593Y011700D01*
X011894Y011700D01*
X012054Y011925D02*
X012354Y011925D01*
X012354Y011850D01*
X012295Y012875D02*
X012295Y013325D01*
X012145Y013175D01*
X011984Y013250D02*
X011909Y013325D01*
X011759Y013325D01*
X011684Y013250D01*
X011684Y012950D01*
X011759Y012875D01*
X011909Y012875D01*
X011984Y012950D01*
X012145Y012875D02*
X012445Y012875D01*
X009655Y012980D02*
X009580Y012905D01*
X009655Y012980D02*
X009655Y013130D01*
X009580Y013205D01*
X009505Y013205D01*
X009430Y013130D01*
X009430Y012980D01*
X009355Y012905D01*
X009280Y012905D01*
X009205Y012980D01*
X009205Y013130D01*
X009280Y013205D01*
X009205Y012745D02*
X009280Y012595D01*
X009430Y012444D01*
X009430Y012670D01*
X009505Y012745D01*
X009580Y012745D01*
X009655Y012670D01*
X009655Y012520D01*
X009580Y012444D01*
X009430Y012444D01*
X009655Y012284D02*
X009655Y011984D01*
X009655Y012134D02*
X009205Y012134D01*
X009355Y011984D01*
X009355Y011824D02*
X009430Y011749D01*
X009430Y011599D01*
X009355Y011524D01*
X009280Y011524D01*
X009205Y011599D01*
X009205Y011749D01*
X009280Y011824D01*
X009355Y011824D01*
X009430Y011749D02*
X009505Y011824D01*
X009580Y011824D01*
X009655Y011749D01*
X009655Y011599D01*
X009580Y011524D01*
X009505Y011524D01*
X009430Y011599D01*
X009505Y011364D02*
X009205Y011364D01*
X009505Y011364D02*
X009655Y011213D01*
X009505Y011063D01*
X009205Y011063D01*
X009205Y010903D02*
X009205Y010603D01*
X009205Y010753D02*
X009655Y010753D01*
X009655Y010443D02*
X009655Y010143D01*
X009205Y010143D01*
X006389Y011676D02*
X006389Y003920D01*
X001468Y003920D01*
X001468Y011676D01*
X027904Y004962D02*
X027904Y019175D01*
X030660Y019175D01*
X030660Y004962D01*
X027904Y004962D01*
D17*
X011955Y010680D03*
M02*
