G75*
%MOIN*%
%OFA0B0*%
%FSLAX24Y24*%
%IPPOS*%
%LPD*%
%AMOC8*
5,1,8,0,0,1.08239X$1,22.5*
%
%ADD10C,0.1123*%
%ADD11C,0.0769*%
%ADD12C,0.0532*%
%ADD13C,0.0828*%
%ADD14C,0.1005*%
%ADD15C,0.0690*%
%ADD16C,0.1060*%
%ADD17OC8,0.1060*%
%ADD18C,0.1710*%
%ADD19C,0.0440*%
D10*
X014122Y002568D03*
X014831Y007292D03*
X023492Y007292D03*
D11*
X029243Y007245D03*
X029243Y005868D03*
X029243Y008623D03*
X029243Y010001D03*
X029243Y011379D03*
X029243Y012757D03*
X029243Y014135D03*
X029243Y015513D03*
X029243Y016891D03*
X029243Y018269D03*
X024988Y002568D03*
X003118Y014546D03*
X003118Y015924D03*
X003118Y017302D03*
X003118Y018680D03*
D12*
X008118Y018944D02*
X008118Y019416D01*
X010118Y019416D02*
X010118Y018944D01*
X011118Y018944D02*
X011118Y019416D01*
X014118Y019416D02*
X014118Y018944D01*
X016118Y018944D02*
X016118Y019416D01*
X017118Y019416D02*
X017118Y018944D01*
X020118Y018416D02*
X020118Y017944D01*
X022118Y017944D02*
X022118Y018416D01*
X023118Y018416D02*
X023118Y017944D01*
X023118Y015416D02*
X023118Y014944D01*
X022118Y014944D02*
X022118Y015416D01*
X021118Y015416D02*
X021118Y014944D01*
X020118Y014944D02*
X020118Y015416D01*
X017118Y015944D02*
X017118Y016416D01*
X016118Y016416D02*
X016118Y015944D01*
X015118Y015944D02*
X015118Y016416D01*
X014118Y016416D02*
X014118Y015944D01*
X011118Y015944D02*
X011118Y016416D01*
X010118Y016416D02*
X010118Y015944D01*
X009118Y015944D02*
X009118Y016416D01*
X008118Y016416D02*
X008118Y015944D01*
D13*
X020149Y020805D03*
X022118Y020805D03*
D14*
X004618Y007680D03*
X004618Y005180D03*
D15*
X004618Y010180D03*
D16*
X013180Y010680D03*
D17*
X011180Y010680D03*
D18*
X003118Y002430D03*
X003118Y021430D03*
X029118Y020180D03*
X029118Y003680D03*
D19*
X025243Y009368D03*
X022180Y009930D03*
X022180Y010930D03*
X020493Y010868D03*
X023118Y012743D03*
X022180Y012930D03*
X023993Y013180D03*
X024055Y014243D03*
X017555Y012930D03*
X016680Y012930D03*
X015180Y019430D03*
X015180Y020680D03*
X007618Y014180D03*
X005618Y013618D03*
X005618Y016180D03*
X004993Y018180D03*
X004993Y019243D03*
X005118Y021368D03*
M02*
