G75*
%MOIN*%
%OFA0B0*%
%FSLAX24Y24*%
%IPPOS*%
%LPD*%
%AMOC8*
5,1,8,0,0,1.08239X$1,22.5*
%
%ADD10C,0.1063*%
%ADD11C,0.0472*%
%ADD12C,0.0768*%
%ADD13C,0.0709*%
%ADD14C,0.0945*%
%ADD15C,0.1000*%
%ADD16OC8,0.1000*%
%ADD17C,0.1650*%
%ADD18C,0.0380*%
%ADD19C,0.0160*%
%ADD20C,0.0250*%
D10*
X014122Y002568D03*
X014831Y007292D03*
X023492Y007292D03*
D11*
X023118Y014944D02*
X023118Y015416D01*
X022118Y015416D02*
X022118Y014944D01*
X021118Y014944D02*
X021118Y015416D01*
X020118Y015416D02*
X020118Y014944D01*
X017118Y015944D02*
X017118Y016416D01*
X016118Y016416D02*
X016118Y015944D01*
X015118Y015944D02*
X015118Y016416D01*
X014118Y016416D02*
X014118Y015944D01*
X011118Y015944D02*
X011118Y016416D01*
X010118Y016416D02*
X010118Y015944D01*
X009118Y015944D02*
X009118Y016416D01*
X008118Y016416D02*
X008118Y015944D01*
X008118Y018944D02*
X008118Y019416D01*
X010118Y019416D02*
X010118Y018944D01*
X011118Y018944D02*
X011118Y019416D01*
X014118Y019416D02*
X014118Y018944D01*
X016118Y018944D02*
X016118Y019416D01*
X017118Y019416D02*
X017118Y018944D01*
X020118Y018416D02*
X020118Y017944D01*
X022118Y017944D02*
X022118Y018416D01*
X023118Y018416D02*
X023118Y017944D01*
D12*
X022118Y020805D03*
X020149Y020805D03*
D13*
X029243Y018269D03*
X029243Y016891D03*
X029243Y015513D03*
X029243Y014135D03*
X029243Y012757D03*
X029243Y011379D03*
X029243Y010001D03*
X029243Y008623D03*
X029243Y007245D03*
X029243Y005868D03*
X003118Y014546D03*
X003118Y015924D03*
X003118Y017302D03*
X003118Y018680D03*
D14*
X004618Y007680D03*
X004618Y005180D03*
D15*
X013180Y010680D03*
D16*
X011180Y010680D03*
D17*
X003118Y002430D03*
X003118Y021430D03*
X029118Y020180D03*
X029118Y003680D03*
D18*
X025243Y009368D03*
X022180Y009930D03*
X022180Y010930D03*
X020493Y010868D03*
X023118Y012743D03*
X022180Y012930D03*
X023993Y013180D03*
X024055Y014243D03*
X017555Y012930D03*
X016680Y012930D03*
X015180Y019430D03*
X015180Y020680D03*
X007618Y014180D03*
X005618Y013618D03*
X005618Y016180D03*
X004993Y018180D03*
X004993Y019243D03*
X005118Y021368D03*
D19*
X005430Y021680D01*
X007799Y019629D02*
X007741Y019491D01*
X007741Y018869D01*
X007799Y018731D01*
X007904Y018625D01*
X008043Y018568D01*
X008192Y018568D01*
X008331Y018625D01*
X008436Y018731D01*
X008494Y018869D01*
X008494Y019491D01*
X008436Y019629D01*
X008331Y019735D01*
X008192Y019792D01*
X008043Y019792D01*
X007904Y019735D01*
X007799Y019629D01*
X007772Y019566D02*
X005074Y019566D01*
X005058Y019572D02*
X004927Y019572D01*
X004806Y019522D01*
X004713Y019429D01*
X004663Y019308D01*
X004663Y019177D01*
X004713Y019056D01*
X004773Y018996D01*
X004773Y018427D01*
X004713Y018367D01*
X004663Y018246D01*
X004663Y018114D01*
X004713Y017993D01*
X004806Y017900D01*
X004927Y017850D01*
X005058Y017850D01*
X005179Y017900D01*
X005272Y017993D01*
X005322Y018114D01*
X005322Y018246D01*
X005272Y018367D01*
X005212Y018427D01*
X005212Y018996D01*
X005272Y019056D01*
X005322Y019177D01*
X005322Y019308D01*
X005272Y019429D01*
X005179Y019522D01*
X005058Y019572D01*
X004911Y019566D02*
X001347Y019566D01*
X001347Y019408D02*
X004704Y019408D01*
X004663Y019249D02*
X001347Y019249D01*
X001347Y019091D02*
X002829Y019091D01*
X002837Y019099D02*
X002698Y018960D01*
X002623Y018778D01*
X002623Y018582D01*
X002698Y018400D01*
X002837Y018261D01*
X003019Y018186D01*
X003216Y018186D01*
X003398Y018261D01*
X003537Y018400D01*
X003612Y018582D01*
X003612Y018778D01*
X003537Y018960D01*
X003398Y019099D01*
X003216Y019174D01*
X003019Y019174D01*
X002837Y019099D01*
X002687Y018932D02*
X001347Y018932D01*
X001347Y018774D02*
X002623Y018774D01*
X002623Y018615D02*
X001347Y018615D01*
X001347Y018457D02*
X002675Y018457D01*
X002800Y018298D02*
X001347Y018298D01*
X001347Y018140D02*
X004663Y018140D01*
X004684Y018298D02*
X003435Y018298D01*
X003560Y018457D02*
X004773Y018457D01*
X004773Y018615D02*
X003612Y018615D01*
X003612Y018774D02*
X004773Y018774D01*
X004773Y018932D02*
X003548Y018932D01*
X003406Y019091D02*
X004698Y019091D01*
X004993Y019243D02*
X004993Y018180D01*
X005301Y018298D02*
X019741Y018298D01*
X019741Y018140D02*
X005322Y018140D01*
X005260Y017981D02*
X019741Y017981D01*
X019741Y017869D02*
X019799Y017731D01*
X019904Y017625D01*
X020043Y017568D01*
X020192Y017568D01*
X020331Y017625D01*
X020436Y017731D01*
X020494Y017869D01*
X020494Y018491D01*
X020436Y018629D01*
X020331Y018735D01*
X020192Y018792D01*
X020043Y018792D01*
X019904Y018735D01*
X019799Y018629D01*
X019741Y018491D01*
X019741Y017869D01*
X019761Y017823D02*
X001347Y017823D01*
X001347Y017981D02*
X004725Y017981D01*
X005212Y018457D02*
X019741Y018457D01*
X019793Y018615D02*
X017307Y018615D01*
X017331Y018625D02*
X017436Y018731D01*
X017494Y018869D01*
X017494Y019491D01*
X017436Y019629D01*
X017331Y019735D01*
X017192Y019792D01*
X017043Y019792D01*
X016904Y019735D01*
X016799Y019629D01*
X016741Y019491D01*
X016741Y018869D01*
X016799Y018731D01*
X016904Y018625D01*
X017043Y018568D01*
X017192Y018568D01*
X017331Y018625D01*
X017454Y018774D02*
X019997Y018774D01*
X020238Y018774D02*
X021997Y018774D01*
X022043Y018792D02*
X021904Y018735D01*
X021799Y018629D01*
X021741Y018491D01*
X021741Y017869D01*
X021799Y017731D01*
X021898Y017632D01*
X021898Y017522D01*
X003561Y017522D01*
X003537Y017582D01*
X003398Y017721D01*
X003216Y017796D01*
X003019Y017796D01*
X002837Y017721D01*
X002698Y017582D01*
X002623Y017400D01*
X002623Y017204D01*
X002698Y017022D01*
X002837Y016883D01*
X003019Y016808D01*
X003216Y016808D01*
X003398Y016883D01*
X003537Y017022D01*
X003561Y017082D01*
X022209Y017082D01*
X022337Y017211D01*
X022337Y017632D01*
X022436Y017731D01*
X022494Y017869D01*
X022494Y018491D01*
X022436Y018629D01*
X022331Y018735D01*
X022192Y018792D01*
X022043Y018792D01*
X022238Y018774D02*
X022997Y018774D01*
X023043Y018792D02*
X022904Y018735D01*
X022799Y018629D01*
X022741Y018491D01*
X022741Y017869D01*
X022799Y017731D01*
X022904Y017625D01*
X023043Y017568D01*
X023192Y017568D01*
X023331Y017625D01*
X023436Y017731D01*
X023494Y017869D01*
X023494Y018491D01*
X023436Y018629D01*
X023331Y018735D01*
X023192Y018792D01*
X023043Y018792D01*
X023238Y018774D02*
X029066Y018774D01*
X029037Y018764D02*
X028962Y018726D01*
X028894Y018677D01*
X028835Y018617D01*
X028785Y018549D01*
X028747Y018474D01*
X028721Y018394D01*
X028708Y018311D01*
X028708Y018307D01*
X029204Y018307D01*
X029204Y018231D01*
X028708Y018231D01*
X028708Y018227D01*
X028721Y018144D01*
X028747Y018064D01*
X028785Y017989D01*
X028835Y017921D01*
X028894Y017862D01*
X028962Y017812D01*
X029037Y017774D01*
X029117Y017748D01*
X029200Y017735D01*
X029204Y017735D01*
X029204Y018231D01*
X029281Y018231D01*
X029281Y018307D01*
X029777Y018307D01*
X029777Y018311D01*
X029764Y018394D01*
X029738Y018474D01*
X029699Y018549D01*
X029650Y018617D01*
X029591Y018677D01*
X029523Y018726D01*
X029448Y018764D01*
X029368Y018790D01*
X029285Y018803D01*
X029281Y018803D01*
X029281Y018307D01*
X029204Y018307D01*
X029204Y018803D01*
X029200Y018803D01*
X029117Y018790D01*
X029037Y018764D01*
X029204Y018774D02*
X029281Y018774D01*
X029419Y018774D02*
X030758Y018774D01*
X030758Y018932D02*
X017494Y018932D01*
X017494Y019091D02*
X030758Y019091D01*
X030758Y019249D02*
X017494Y019249D01*
X017494Y019408D02*
X030758Y019408D01*
X030758Y019566D02*
X017463Y019566D01*
X017341Y019725D02*
X030758Y019725D01*
X030758Y019883D02*
X015400Y019883D01*
X015400Y019725D02*
X015894Y019725D01*
X015904Y019735D02*
X015799Y019629D01*
X015741Y019491D01*
X015741Y018869D01*
X015799Y018731D01*
X015904Y018625D01*
X016043Y018568D01*
X016192Y018568D01*
X016331Y018625D01*
X016436Y018731D01*
X016494Y018869D01*
X016494Y019491D01*
X016436Y019629D01*
X016331Y019735D01*
X016192Y019792D01*
X016043Y019792D01*
X015904Y019735D01*
X015772Y019566D02*
X015481Y019566D01*
X015460Y019617D02*
X015510Y019496D01*
X015510Y019364D01*
X015460Y019243D01*
X015367Y019150D01*
X015246Y019100D01*
X015114Y019100D01*
X014993Y019150D01*
X014900Y019243D01*
X014850Y019364D01*
X014850Y019496D01*
X014900Y019617D01*
X014960Y019677D01*
X014960Y020433D01*
X014900Y020493D01*
X014850Y020614D01*
X014850Y020746D01*
X014900Y020867D01*
X014993Y020960D01*
X015114Y021010D01*
X015246Y021010D01*
X015367Y020960D01*
X015460Y020867D01*
X015510Y020746D01*
X015510Y020614D01*
X015460Y020493D01*
X015400Y020433D01*
X015400Y019677D01*
X015460Y019617D01*
X015510Y019408D02*
X015741Y019408D01*
X015741Y019249D02*
X015462Y019249D01*
X015741Y019091D02*
X014494Y019091D01*
X014494Y019249D02*
X014898Y019249D01*
X014850Y019408D02*
X014494Y019408D01*
X014494Y019491D02*
X014436Y019629D01*
X014331Y019735D01*
X014192Y019792D01*
X014043Y019792D01*
X013904Y019735D01*
X013799Y019629D01*
X013741Y019491D01*
X013741Y018869D01*
X013799Y018731D01*
X013904Y018625D01*
X014043Y018568D01*
X014192Y018568D01*
X014331Y018625D01*
X014436Y018731D01*
X014494Y018869D01*
X014494Y019491D01*
X014463Y019566D02*
X014879Y019566D01*
X014960Y019725D02*
X014341Y019725D01*
X013894Y019725D02*
X011341Y019725D01*
X011331Y019735D02*
X011192Y019792D01*
X011043Y019792D01*
X010904Y019735D01*
X010799Y019629D01*
X010741Y019491D01*
X010741Y018869D01*
X010799Y018731D01*
X010904Y018625D01*
X011043Y018568D01*
X011192Y018568D01*
X011331Y018625D01*
X011436Y018731D01*
X011494Y018869D01*
X011494Y019491D01*
X011436Y019629D01*
X011331Y019735D01*
X011463Y019566D02*
X013772Y019566D01*
X013741Y019408D02*
X011494Y019408D01*
X011494Y019249D02*
X013741Y019249D01*
X013741Y019091D02*
X011494Y019091D01*
X011494Y018932D02*
X013741Y018932D01*
X013781Y018774D02*
X011454Y018774D01*
X011307Y018615D02*
X013928Y018615D01*
X014307Y018615D02*
X015928Y018615D01*
X015781Y018774D02*
X014454Y018774D01*
X014494Y018932D02*
X015741Y018932D01*
X016307Y018615D02*
X016928Y018615D01*
X016781Y018774D02*
X016454Y018774D01*
X016494Y018932D02*
X016741Y018932D01*
X016741Y019091D02*
X016494Y019091D01*
X016494Y019249D02*
X016741Y019249D01*
X016741Y019408D02*
X016494Y019408D01*
X016463Y019566D02*
X016772Y019566D01*
X016894Y019725D02*
X016341Y019725D01*
X015400Y020042D02*
X030758Y020042D01*
X030758Y020200D02*
X015400Y020200D01*
X015400Y020359D02*
X019858Y020359D01*
X019852Y020361D02*
X020045Y020281D01*
X020253Y020281D01*
X020446Y020361D01*
X020593Y020508D01*
X020673Y020701D01*
X020673Y020909D01*
X020593Y021102D01*
X020446Y021249D01*
X020253Y021329D01*
X020045Y021329D01*
X019852Y021249D01*
X019705Y021102D01*
X019625Y020909D01*
X019625Y020701D01*
X019705Y020508D01*
X019852Y020361D01*
X019701Y020517D02*
X015470Y020517D01*
X015510Y020676D02*
X019636Y020676D01*
X019625Y020834D02*
X015473Y020834D01*
X015288Y020993D02*
X019660Y020993D01*
X019754Y021151D02*
X001347Y021151D01*
X001347Y020993D02*
X015072Y020993D01*
X014887Y020834D02*
X001347Y020834D01*
X001347Y020676D02*
X014850Y020676D01*
X014890Y020517D02*
X001347Y020517D01*
X001347Y020359D02*
X014960Y020359D01*
X014960Y020200D02*
X001347Y020200D01*
X001347Y020042D02*
X014960Y020042D01*
X014960Y019883D02*
X001347Y019883D01*
X001347Y019725D02*
X007894Y019725D01*
X007741Y019408D02*
X005281Y019408D01*
X005322Y019249D02*
X007741Y019249D01*
X007741Y019091D02*
X005287Y019091D01*
X005212Y018932D02*
X007741Y018932D01*
X007781Y018774D02*
X005212Y018774D01*
X005212Y018615D02*
X007928Y018615D01*
X008307Y018615D02*
X009928Y018615D01*
X009904Y018625D02*
X010043Y018568D01*
X010192Y018568D01*
X010331Y018625D01*
X010436Y018731D01*
X010494Y018869D01*
X010494Y019491D01*
X010436Y019629D01*
X010331Y019735D01*
X010192Y019792D01*
X010043Y019792D01*
X009904Y019735D01*
X009799Y019629D01*
X009741Y019491D01*
X009741Y018869D01*
X009799Y018731D01*
X009904Y018625D01*
X009781Y018774D02*
X008454Y018774D01*
X008494Y018932D02*
X009741Y018932D01*
X009741Y019091D02*
X008494Y019091D01*
X008494Y019249D02*
X009741Y019249D01*
X009741Y019408D02*
X008494Y019408D01*
X008463Y019566D02*
X009772Y019566D01*
X009894Y019725D02*
X008341Y019725D01*
X010341Y019725D02*
X010894Y019725D01*
X010772Y019566D02*
X010463Y019566D01*
X010494Y019408D02*
X010741Y019408D01*
X010741Y019249D02*
X010494Y019249D01*
X010494Y019091D02*
X010741Y019091D01*
X010741Y018932D02*
X010494Y018932D01*
X010454Y018774D02*
X010781Y018774D01*
X010928Y018615D02*
X010307Y018615D01*
X010192Y016792D02*
X010043Y016792D01*
X009904Y016735D01*
X009799Y016629D01*
X009741Y016491D01*
X009741Y015869D01*
X009799Y015731D01*
X009904Y015625D01*
X010043Y015568D01*
X010192Y015568D01*
X010331Y015625D01*
X010436Y015731D01*
X010494Y015869D01*
X010494Y016491D01*
X010436Y016629D01*
X010331Y016735D01*
X010192Y016792D01*
X010353Y016713D02*
X010882Y016713D01*
X010904Y016735D02*
X010799Y016629D01*
X010741Y016491D01*
X010741Y015869D01*
X010799Y015731D01*
X010904Y015625D01*
X011043Y015568D01*
X011192Y015568D01*
X011331Y015625D01*
X011436Y015731D01*
X011494Y015869D01*
X011494Y016491D01*
X011436Y016629D01*
X011331Y016735D01*
X011192Y016792D01*
X011043Y016792D01*
X010904Y016735D01*
X010768Y016555D02*
X010467Y016555D01*
X010494Y016396D02*
X010741Y016396D01*
X010741Y016238D02*
X010494Y016238D01*
X010494Y016079D02*
X010741Y016079D01*
X010741Y015921D02*
X010494Y015921D01*
X010449Y015762D02*
X010786Y015762D01*
X010956Y015604D02*
X010279Y015604D01*
X009956Y015604D02*
X009279Y015604D01*
X009331Y015625D02*
X009192Y015568D01*
X009043Y015568D01*
X008904Y015625D01*
X008799Y015731D01*
X008741Y015869D01*
X008741Y016491D01*
X008799Y016629D01*
X008904Y016735D01*
X009043Y016792D01*
X009192Y016792D01*
X009331Y016735D01*
X009436Y016629D01*
X009494Y016491D01*
X009494Y015869D01*
X009436Y015731D01*
X009331Y015625D01*
X009449Y015762D02*
X009786Y015762D01*
X009741Y015921D02*
X009494Y015921D01*
X009494Y016079D02*
X009741Y016079D01*
X009741Y016238D02*
X009494Y016238D01*
X009494Y016396D02*
X009741Y016396D01*
X009768Y016555D02*
X009467Y016555D01*
X009353Y016713D02*
X009882Y016713D01*
X008882Y016713D02*
X008353Y016713D01*
X008331Y016735D02*
X008192Y016792D01*
X008043Y016792D01*
X007904Y016735D01*
X007799Y016629D01*
X007741Y016491D01*
X007741Y015869D01*
X007799Y015731D01*
X007904Y015625D01*
X008043Y015568D01*
X008192Y015568D01*
X008331Y015625D01*
X008436Y015731D01*
X008494Y015869D01*
X008494Y016491D01*
X008436Y016629D01*
X008331Y016735D01*
X008467Y016555D02*
X008768Y016555D01*
X008741Y016396D02*
X008494Y016396D01*
X008494Y016238D02*
X008741Y016238D01*
X008741Y016079D02*
X008494Y016079D01*
X008494Y015921D02*
X008741Y015921D01*
X008786Y015762D02*
X008449Y015762D01*
X008279Y015604D02*
X008956Y015604D01*
X007956Y015604D02*
X005837Y015604D01*
X005837Y015762D02*
X007786Y015762D01*
X007741Y015921D02*
X005837Y015921D01*
X005837Y015933D02*
X005897Y015993D01*
X005947Y016114D01*
X005947Y016246D01*
X005897Y016367D01*
X005804Y016460D01*
X005683Y016510D01*
X005552Y016510D01*
X005431Y016460D01*
X005338Y016367D01*
X005288Y016246D01*
X005288Y016114D01*
X005338Y015993D01*
X005398Y015933D01*
X005398Y013864D01*
X005338Y013804D01*
X005288Y013683D01*
X005288Y013552D01*
X005338Y013431D01*
X005431Y013338D01*
X005552Y013288D01*
X005683Y013288D01*
X005804Y013338D01*
X005897Y013431D01*
X005947Y013552D01*
X005947Y013683D01*
X005897Y013804D01*
X005837Y013864D01*
X005837Y015933D01*
X005933Y016079D02*
X007741Y016079D01*
X007741Y016238D02*
X005947Y016238D01*
X005868Y016396D02*
X007741Y016396D01*
X007768Y016555D02*
X001347Y016555D01*
X001347Y016713D02*
X007882Y016713D01*
X005837Y015445D02*
X019741Y015445D01*
X019741Y015491D02*
X019799Y015629D01*
X019904Y015735D01*
X020043Y015792D01*
X020192Y015792D01*
X020331Y015735D01*
X020436Y015629D01*
X020494Y015491D01*
X020494Y014869D01*
X020436Y014731D01*
X020331Y014625D01*
X020192Y014568D01*
X020043Y014568D01*
X019904Y014625D01*
X019799Y014731D01*
X019741Y014869D01*
X019741Y015491D01*
X019788Y015604D02*
X017279Y015604D01*
X017331Y015625D02*
X017436Y015731D01*
X017494Y015869D01*
X017494Y016491D01*
X017436Y016629D01*
X017331Y016735D01*
X017192Y016792D01*
X017043Y016792D01*
X016904Y016735D01*
X016799Y016629D01*
X016741Y016491D01*
X016741Y015869D01*
X016799Y015731D01*
X016904Y015625D01*
X017043Y015568D01*
X017192Y015568D01*
X017331Y015625D01*
X017449Y015762D02*
X019969Y015762D01*
X020266Y015762D02*
X020969Y015762D01*
X020904Y015735D02*
X021043Y015792D01*
X021192Y015792D01*
X021331Y015735D01*
X021436Y015629D01*
X021494Y015491D01*
X021494Y014869D01*
X021436Y014731D01*
X021331Y014625D01*
X021192Y014568D01*
X021043Y014568D01*
X020904Y014625D01*
X020799Y014731D01*
X020741Y014869D01*
X020741Y015491D01*
X020799Y015629D01*
X020904Y015735D01*
X020788Y015604D02*
X020447Y015604D01*
X020494Y015445D02*
X020741Y015445D01*
X020741Y015287D02*
X020494Y015287D01*
X020494Y015128D02*
X020741Y015128D01*
X020741Y014970D02*
X020494Y014970D01*
X020470Y014811D02*
X020765Y014811D01*
X020877Y014653D02*
X020358Y014653D01*
X019877Y014653D02*
X005837Y014653D01*
X005837Y014811D02*
X019765Y014811D01*
X019741Y014970D02*
X005837Y014970D01*
X005837Y015128D02*
X019741Y015128D01*
X019741Y015287D02*
X005837Y015287D01*
X005398Y015287D02*
X001347Y015287D01*
X001347Y015445D02*
X002982Y015445D01*
X003019Y015430D02*
X003216Y015430D01*
X003398Y015505D01*
X003537Y015644D01*
X003612Y015826D01*
X003612Y016022D01*
X003537Y016204D01*
X003398Y016343D01*
X003216Y016418D01*
X003019Y016418D01*
X002837Y016343D01*
X002698Y016204D01*
X002623Y016022D01*
X002623Y015826D01*
X002698Y015644D01*
X002837Y015505D01*
X003019Y015430D01*
X003253Y015445D02*
X005398Y015445D01*
X005398Y015604D02*
X003496Y015604D01*
X003585Y015762D02*
X005398Y015762D01*
X005398Y015921D02*
X003612Y015921D01*
X003588Y016079D02*
X005302Y016079D01*
X005288Y016238D02*
X003503Y016238D01*
X003270Y016396D02*
X005367Y016396D01*
X005618Y016180D02*
X005618Y013618D01*
X005842Y013860D02*
X007528Y013860D01*
X007552Y013850D02*
X007683Y013850D01*
X007804Y013900D01*
X007864Y013960D01*
X014214Y013960D01*
X015494Y012680D01*
X001347Y012680D01*
X001347Y022446D01*
X030758Y022446D01*
X030758Y001410D01*
X027368Y001410D01*
X027368Y005618D01*
X015805Y005618D01*
X028811Y005618D01*
X028823Y005587D02*
X028962Y005448D01*
X029144Y005373D01*
X029341Y005373D01*
X029523Y005448D01*
X029662Y005587D01*
X029737Y005769D01*
X029737Y005966D01*
X029662Y006148D01*
X029523Y006287D01*
X029341Y006362D01*
X029144Y006362D01*
X028962Y006287D01*
X028823Y006148D01*
X028748Y005966D01*
X028748Y005769D01*
X028823Y005587D01*
X028951Y005460D02*
X027368Y005460D01*
X027368Y005301D02*
X030758Y005301D01*
X030758Y005143D02*
X027368Y005143D01*
X027368Y004984D02*
X030758Y004984D01*
X030758Y004826D02*
X027368Y004826D01*
X027368Y004667D02*
X030758Y004667D01*
X030758Y004509D02*
X027368Y004509D01*
X027368Y004350D02*
X030758Y004350D01*
X030758Y004192D02*
X027368Y004192D01*
X027368Y004033D02*
X030758Y004033D01*
X030758Y003875D02*
X027368Y003875D01*
X027368Y003716D02*
X030758Y003716D01*
X030758Y003558D02*
X027368Y003558D01*
X027368Y003399D02*
X030758Y003399D01*
X030758Y003241D02*
X027368Y003241D01*
X027368Y003082D02*
X030758Y003082D01*
X030758Y002924D02*
X027368Y002924D01*
X027368Y002765D02*
X030758Y002765D01*
X030758Y002607D02*
X027368Y002607D01*
X027368Y002448D02*
X030758Y002448D01*
X030758Y002290D02*
X027368Y002290D01*
X027368Y002131D02*
X030758Y002131D01*
X030758Y001973D02*
X027368Y001973D01*
X027368Y001814D02*
X030758Y001814D01*
X030758Y001656D02*
X027368Y001656D01*
X027368Y001497D02*
X030758Y001497D01*
X030758Y005460D02*
X029534Y005460D01*
X029674Y005618D02*
X030758Y005618D01*
X030758Y005777D02*
X029737Y005777D01*
X029737Y005935D02*
X030758Y005935D01*
X030758Y006094D02*
X029684Y006094D01*
X029557Y006252D02*
X030758Y006252D01*
X030758Y006411D02*
X015805Y006411D01*
X015805Y006569D02*
X030758Y006569D01*
X030758Y006728D02*
X023877Y006728D01*
X023872Y006723D02*
X024061Y006912D01*
X024164Y007159D01*
X024164Y007426D01*
X024061Y007673D01*
X023872Y007861D01*
X023626Y007964D01*
X023358Y007964D01*
X023112Y007861D01*
X022923Y007673D01*
X022821Y007426D01*
X022821Y007159D01*
X022923Y006912D01*
X023112Y006723D01*
X023358Y006621D01*
X023626Y006621D01*
X023872Y006723D01*
X024035Y006886D02*
X028903Y006886D01*
X028962Y006826D02*
X028823Y006965D01*
X028748Y007147D01*
X028748Y007344D01*
X028823Y007525D01*
X028962Y007665D01*
X029144Y007740D01*
X029341Y007740D01*
X029523Y007665D01*
X029662Y007525D01*
X029737Y007344D01*
X029737Y007147D01*
X029662Y006965D01*
X029523Y006826D01*
X029341Y006751D01*
X029144Y006751D01*
X028962Y006826D01*
X028791Y007045D02*
X024116Y007045D01*
X024164Y007203D02*
X028748Y007203D01*
X028756Y007362D02*
X024164Y007362D01*
X024124Y007520D02*
X028821Y007520D01*
X028996Y007679D02*
X024055Y007679D01*
X023897Y007837D02*
X030758Y007837D01*
X030758Y007679D02*
X029489Y007679D01*
X029664Y007520D02*
X030758Y007520D01*
X030758Y007362D02*
X029729Y007362D01*
X029737Y007203D02*
X030758Y007203D01*
X030758Y007045D02*
X029694Y007045D01*
X029582Y006886D02*
X030758Y006886D01*
X030758Y007996D02*
X015805Y007996D01*
X015805Y008154D02*
X029084Y008154D01*
X029144Y008129D02*
X029341Y008129D01*
X029523Y008204D01*
X029662Y008343D01*
X029737Y008525D01*
X029737Y008722D01*
X029706Y008795D01*
X030400Y009533D01*
X030462Y009595D01*
X030462Y009599D01*
X030465Y009601D01*
X030462Y009689D01*
X030462Y016237D01*
X030467Y016322D01*
X030462Y016327D01*
X030462Y016334D01*
X030402Y016394D01*
X029876Y016976D01*
X029876Y016982D01*
X029816Y017043D01*
X029759Y017106D01*
X029752Y017107D01*
X029748Y017111D01*
X029686Y017111D01*
X029662Y017171D01*
X029523Y017310D01*
X029341Y017385D01*
X029144Y017385D01*
X028962Y017310D01*
X028823Y017171D01*
X028748Y016989D01*
X028748Y016793D01*
X028823Y016611D01*
X028962Y016472D01*
X029144Y016397D01*
X029341Y016397D01*
X029523Y016472D01*
X029636Y016586D01*
X030023Y016158D01*
X030023Y009773D01*
X029387Y009098D01*
X029341Y009118D01*
X029144Y009118D01*
X028962Y009042D01*
X028823Y008903D01*
X028796Y008837D01*
X019959Y008837D01*
X014396Y014400D01*
X007864Y014400D01*
X007804Y014460D01*
X007683Y014510D01*
X007552Y014510D01*
X007431Y014460D01*
X007338Y014367D01*
X007288Y014246D01*
X007288Y014114D01*
X007338Y013993D01*
X007431Y013900D01*
X007552Y013850D01*
X007707Y013860D02*
X014314Y013860D01*
X014472Y013702D02*
X005940Y013702D01*
X005944Y013543D02*
X014631Y013543D01*
X014789Y013385D02*
X005851Y013385D01*
X005384Y013385D02*
X001347Y013385D01*
X001347Y013543D02*
X005291Y013543D01*
X005295Y013702D02*
X001347Y013702D01*
X001347Y013860D02*
X005393Y013860D01*
X005398Y014019D02*
X001347Y014019D01*
X001347Y014177D02*
X002788Y014177D01*
X002837Y014127D02*
X003019Y014052D01*
X003216Y014052D01*
X003398Y014127D01*
X003537Y014266D01*
X003612Y014448D01*
X003612Y014644D01*
X003537Y014826D01*
X003398Y014965D01*
X003216Y015040D01*
X003019Y015040D01*
X002837Y014965D01*
X002698Y014826D01*
X002623Y014644D01*
X002623Y014448D01*
X002698Y014266D01*
X002837Y014127D01*
X002670Y014336D02*
X001347Y014336D01*
X001347Y014494D02*
X002623Y014494D01*
X002627Y014653D02*
X001347Y014653D01*
X001347Y014811D02*
X002692Y014811D01*
X002848Y014970D02*
X001347Y014970D01*
X001347Y015128D02*
X005398Y015128D01*
X005398Y014970D02*
X003387Y014970D01*
X003543Y014811D02*
X005398Y014811D01*
X005398Y014653D02*
X003608Y014653D01*
X003612Y014494D02*
X005398Y014494D01*
X005398Y014336D02*
X003565Y014336D01*
X003447Y014177D02*
X005398Y014177D01*
X005837Y014177D02*
X007288Y014177D01*
X007325Y014336D02*
X005837Y014336D01*
X005837Y014494D02*
X007513Y014494D01*
X007722Y014494D02*
X023383Y014494D01*
X023331Y014625D02*
X023436Y014731D01*
X023494Y014869D01*
X023494Y015491D01*
X023436Y015629D01*
X023331Y015735D01*
X023192Y015792D01*
X023043Y015792D01*
X022904Y015735D01*
X022799Y015629D01*
X022741Y015491D01*
X022741Y014869D01*
X022799Y014731D01*
X022904Y014625D01*
X023043Y014568D01*
X023192Y014568D01*
X023331Y014625D01*
X023358Y014653D02*
X023535Y014653D01*
X023648Y014769D02*
X022193Y013260D01*
X022114Y013260D01*
X021993Y013210D01*
X021900Y013117D01*
X021850Y012996D01*
X021850Y012864D01*
X021900Y012743D01*
X021993Y012650D01*
X022114Y012600D01*
X022246Y012600D01*
X022367Y012650D01*
X022460Y012743D01*
X022510Y012864D01*
X022510Y012955D01*
X023725Y014215D01*
X023725Y014177D01*
X023688Y014177D01*
X023725Y014177D02*
X023775Y014056D01*
X023868Y013963D01*
X023989Y013913D01*
X024121Y013913D01*
X024235Y013960D01*
X024398Y013960D01*
X024398Y010150D01*
X022427Y010150D01*
X022367Y010210D01*
X022246Y010260D01*
X022114Y010260D01*
X021993Y010210D01*
X021900Y010117D01*
X021850Y009996D01*
X021850Y009864D01*
X021900Y009743D01*
X021993Y009650D01*
X022114Y009600D01*
X022246Y009600D01*
X022367Y009650D01*
X022427Y009710D01*
X024709Y009710D01*
X024837Y009839D01*
X024837Y014271D01*
X024709Y014400D01*
X024347Y014400D01*
X024335Y014429D01*
X024304Y014460D01*
X025023Y014460D01*
X025023Y009614D01*
X024963Y009554D01*
X024913Y009433D01*
X024913Y009302D01*
X024963Y009181D01*
X025056Y009088D01*
X025177Y009038D01*
X025308Y009038D01*
X025429Y009088D01*
X025522Y009181D01*
X025572Y009302D01*
X025572Y009433D01*
X025522Y009554D01*
X025462Y009614D01*
X025462Y014771D01*
X025334Y014900D01*
X023956Y014900D01*
X023955Y014902D01*
X023865Y014900D01*
X023776Y014900D01*
X023775Y014898D01*
X023772Y014898D01*
X023711Y014834D01*
X023648Y014771D01*
X023648Y014769D01*
X023687Y014811D02*
X023470Y014811D01*
X023494Y014970D02*
X030023Y014970D01*
X030023Y015128D02*
X029556Y015128D01*
X029523Y015094D02*
X029662Y015233D01*
X029737Y015415D01*
X029737Y015611D01*
X029662Y015793D01*
X029523Y015932D01*
X029341Y016007D01*
X029144Y016007D01*
X028962Y015932D01*
X028823Y015793D01*
X028748Y015611D01*
X028748Y015415D01*
X028823Y015233D01*
X028962Y015094D01*
X029144Y015019D01*
X029341Y015019D01*
X029523Y015094D01*
X029684Y015287D02*
X030023Y015287D01*
X030023Y015445D02*
X029737Y015445D01*
X029737Y015604D02*
X030023Y015604D01*
X030023Y015762D02*
X029674Y015762D01*
X029534Y015921D02*
X030023Y015921D01*
X030023Y016079D02*
X017494Y016079D01*
X017494Y015921D02*
X028951Y015921D01*
X028811Y015762D02*
X023266Y015762D01*
X023447Y015604D02*
X028748Y015604D01*
X028748Y015445D02*
X023494Y015445D01*
X023494Y015287D02*
X028801Y015287D01*
X028929Y015128D02*
X023494Y015128D01*
X023868Y014680D02*
X025243Y014680D01*
X025243Y009368D01*
X025496Y009581D02*
X028967Y009581D01*
X028962Y009582D02*
X029144Y009507D01*
X029341Y009507D01*
X029523Y009582D01*
X029662Y009721D01*
X029737Y009903D01*
X029737Y010100D01*
X029662Y010281D01*
X029523Y010420D01*
X029341Y010496D01*
X029144Y010496D01*
X028962Y010420D01*
X028823Y010281D01*
X028748Y010100D01*
X028748Y009903D01*
X028823Y009721D01*
X028962Y009582D01*
X028816Y009739D02*
X025462Y009739D01*
X025462Y009898D02*
X028750Y009898D01*
X028748Y010056D02*
X025462Y010056D01*
X025462Y010215D02*
X028796Y010215D01*
X028915Y010373D02*
X025462Y010373D01*
X025462Y010532D02*
X030023Y010532D01*
X030023Y010690D02*
X025462Y010690D01*
X025462Y010849D02*
X030023Y010849D01*
X030023Y011007D02*
X029569Y011007D01*
X029523Y010960D02*
X029662Y011099D01*
X029737Y011281D01*
X029737Y011478D01*
X029662Y011659D01*
X029523Y011798D01*
X029341Y011874D01*
X029144Y011874D01*
X028962Y011798D01*
X028823Y011659D01*
X028748Y011478D01*
X028748Y011281D01*
X028823Y011099D01*
X028962Y010960D01*
X029144Y010885D01*
X029341Y010885D01*
X029523Y010960D01*
X029689Y011166D02*
X030023Y011166D01*
X030023Y011324D02*
X029737Y011324D01*
X029735Y011483D02*
X030023Y011483D01*
X030023Y011641D02*
X029669Y011641D01*
X029520Y011800D02*
X030023Y011800D01*
X030023Y011958D02*
X025462Y011958D01*
X025462Y011800D02*
X028965Y011800D01*
X028816Y011641D02*
X025462Y011641D01*
X025462Y011483D02*
X028750Y011483D01*
X028748Y011324D02*
X025462Y011324D01*
X025462Y011166D02*
X028796Y011166D01*
X028916Y011007D02*
X025462Y011007D01*
X025023Y011007D02*
X024837Y011007D01*
X024837Y010849D02*
X025023Y010849D01*
X025023Y010690D02*
X024837Y010690D01*
X024837Y010532D02*
X025023Y010532D01*
X025023Y010373D02*
X024837Y010373D01*
X024837Y010215D02*
X025023Y010215D01*
X025023Y010056D02*
X024837Y010056D01*
X024837Y009898D02*
X025023Y009898D01*
X025023Y009739D02*
X024738Y009739D01*
X024618Y009930D02*
X024618Y014180D01*
X024055Y014180D01*
X024055Y014243D01*
X023812Y014019D02*
X023535Y014019D01*
X023382Y013860D02*
X024398Y013860D01*
X024398Y013702D02*
X023230Y013702D01*
X023077Y013543D02*
X024398Y013543D01*
X024398Y013385D02*
X024255Y013385D01*
X024272Y013367D02*
X024179Y013460D01*
X024058Y013510D01*
X023927Y013510D01*
X023806Y013460D01*
X023713Y013367D01*
X023663Y013246D01*
X023663Y013114D01*
X023713Y012993D01*
X023773Y012933D01*
X023773Y011150D01*
X022427Y011150D01*
X022367Y011210D01*
X022246Y011260D01*
X022114Y011260D01*
X021993Y011210D01*
X021900Y011117D01*
X021850Y010996D01*
X021850Y010864D01*
X021900Y010743D01*
X021993Y010650D01*
X022114Y010600D01*
X022246Y010600D01*
X022367Y010650D01*
X022427Y010710D01*
X024084Y010710D01*
X024212Y010839D01*
X024212Y012933D01*
X024272Y012993D01*
X024322Y013114D01*
X024322Y013246D01*
X024272Y013367D01*
X024322Y013226D02*
X024398Y013226D01*
X024398Y013068D02*
X024303Y013068D01*
X024212Y012909D02*
X024398Y012909D01*
X024398Y012751D02*
X024212Y012751D01*
X024212Y012592D02*
X024398Y012592D01*
X024398Y012434D02*
X024212Y012434D01*
X024212Y012275D02*
X024398Y012275D01*
X024398Y012117D02*
X024212Y012117D01*
X024212Y011958D02*
X024398Y011958D01*
X024398Y011800D02*
X024212Y011800D01*
X024212Y011641D02*
X024398Y011641D01*
X024398Y011483D02*
X024212Y011483D01*
X024212Y011324D02*
X024398Y011324D01*
X024398Y011166D02*
X024212Y011166D01*
X024212Y011007D02*
X024398Y011007D01*
X024398Y010849D02*
X024212Y010849D01*
X023993Y010930D02*
X022180Y010930D01*
X021949Y011166D02*
X017631Y011166D01*
X017472Y011324D02*
X023773Y011324D01*
X023773Y011166D02*
X022411Y011166D01*
X022407Y010690D02*
X024398Y010690D01*
X024398Y010532D02*
X018265Y010532D01*
X018106Y010690D02*
X021953Y010690D01*
X021857Y010849D02*
X017948Y010849D01*
X017789Y011007D02*
X021855Y011007D01*
X022005Y010215D02*
X018582Y010215D01*
X018423Y010373D02*
X024398Y010373D01*
X024398Y010215D02*
X022355Y010215D01*
X022180Y009930D02*
X024618Y009930D01*
X024989Y009581D02*
X019216Y009581D01*
X019057Y009739D02*
X021904Y009739D01*
X021850Y009898D02*
X018899Y009898D01*
X018740Y010056D02*
X021875Y010056D01*
X019850Y008947D02*
X028867Y008947D01*
X029113Y009105D02*
X025447Y009105D01*
X025557Y009264D02*
X029543Y009264D01*
X029692Y009422D02*
X025572Y009422D01*
X025038Y009105D02*
X019691Y009105D01*
X019533Y009264D02*
X024928Y009264D01*
X024913Y009422D02*
X019374Y009422D01*
X019069Y009105D02*
X015805Y009105D01*
X015805Y008947D02*
X019227Y008947D01*
X019386Y008788D02*
X015805Y008788D01*
X015805Y008630D02*
X019544Y008630D01*
X019648Y008526D02*
X019776Y008398D01*
X028801Y008398D01*
X028823Y008343D01*
X028962Y008204D01*
X029144Y008129D01*
X029401Y008154D02*
X030758Y008154D01*
X030758Y008313D02*
X029631Y008313D01*
X029714Y008471D02*
X030758Y008471D01*
X030758Y008630D02*
X029737Y008630D01*
X029709Y008788D02*
X030758Y008788D01*
X030758Y008947D02*
X029849Y008947D01*
X029998Y009105D02*
X030758Y009105D01*
X030758Y009264D02*
X030147Y009264D01*
X030296Y009422D02*
X030758Y009422D01*
X030758Y009581D02*
X030448Y009581D01*
X030462Y009739D02*
X030758Y009739D01*
X030758Y009898D02*
X030462Y009898D01*
X030462Y010056D02*
X030758Y010056D01*
X030758Y010215D02*
X030462Y010215D01*
X030462Y010373D02*
X030758Y010373D01*
X030758Y010532D02*
X030462Y010532D01*
X030462Y010690D02*
X030758Y010690D01*
X030758Y010849D02*
X030462Y010849D01*
X030462Y011007D02*
X030758Y011007D01*
X030758Y011166D02*
X030462Y011166D01*
X030462Y011324D02*
X030758Y011324D01*
X030758Y011483D02*
X030462Y011483D01*
X030462Y011641D02*
X030758Y011641D01*
X030758Y011800D02*
X030462Y011800D01*
X030462Y011958D02*
X030758Y011958D01*
X030758Y012117D02*
X030462Y012117D01*
X030462Y012275D02*
X030758Y012275D01*
X030758Y012434D02*
X030462Y012434D01*
X030462Y012592D02*
X030758Y012592D01*
X030758Y012751D02*
X030462Y012751D01*
X030462Y012909D02*
X030758Y012909D01*
X030758Y013068D02*
X030462Y013068D01*
X030462Y013226D02*
X030758Y013226D01*
X030758Y013385D02*
X030462Y013385D01*
X030462Y013543D02*
X030758Y013543D01*
X030758Y013702D02*
X030462Y013702D01*
X030462Y013860D02*
X030758Y013860D01*
X030758Y014019D02*
X030462Y014019D01*
X030462Y014177D02*
X030758Y014177D01*
X030758Y014336D02*
X030462Y014336D01*
X030462Y014494D02*
X030758Y014494D01*
X030758Y014653D02*
X030462Y014653D01*
X030462Y014811D02*
X030758Y014811D01*
X030758Y014970D02*
X030462Y014970D01*
X030462Y015128D02*
X030758Y015128D01*
X030758Y015287D02*
X030462Y015287D01*
X030462Y015445D02*
X030758Y015445D01*
X030758Y015604D02*
X030462Y015604D01*
X030462Y015762D02*
X030758Y015762D01*
X030758Y015921D02*
X030462Y015921D01*
X030462Y016079D02*
X030758Y016079D01*
X030758Y016238D02*
X030463Y016238D01*
X030400Y016396D02*
X030758Y016396D01*
X030758Y016555D02*
X030257Y016555D01*
X030114Y016713D02*
X030758Y016713D01*
X030758Y016872D02*
X029971Y016872D01*
X029829Y017030D02*
X030758Y017030D01*
X030758Y017189D02*
X029644Y017189D01*
X029434Y017347D02*
X030758Y017347D01*
X030758Y017506D02*
X022337Y017506D01*
X022337Y017347D02*
X029051Y017347D01*
X028841Y017189D02*
X022315Y017189D01*
X022118Y017302D02*
X003118Y017302D01*
X003455Y017664D02*
X019865Y017664D01*
X020370Y017664D02*
X021865Y017664D01*
X021761Y017823D02*
X020474Y017823D01*
X020494Y017981D02*
X021741Y017981D01*
X021741Y018140D02*
X020494Y018140D01*
X020494Y018298D02*
X021741Y018298D01*
X021741Y018457D02*
X020494Y018457D01*
X020442Y018615D02*
X021793Y018615D01*
X022118Y018180D02*
X022118Y017302D01*
X022370Y017664D02*
X022865Y017664D01*
X022761Y017823D02*
X022474Y017823D01*
X022494Y017981D02*
X022741Y017981D01*
X022741Y018140D02*
X022494Y018140D01*
X022494Y018298D02*
X022741Y018298D01*
X022741Y018457D02*
X022494Y018457D01*
X022442Y018615D02*
X022793Y018615D01*
X023442Y018615D02*
X028833Y018615D01*
X028742Y018457D02*
X023494Y018457D01*
X023494Y018298D02*
X029204Y018298D01*
X029281Y018298D02*
X030758Y018298D01*
X030758Y018140D02*
X029762Y018140D01*
X029764Y018144D02*
X029777Y018227D01*
X029777Y018231D01*
X029281Y018231D01*
X029281Y017735D01*
X029285Y017735D01*
X029368Y017748D01*
X029448Y017774D01*
X029523Y017812D01*
X029591Y017862D01*
X029650Y017921D01*
X029699Y017989D01*
X029738Y018064D01*
X029764Y018144D01*
X029694Y017981D02*
X030758Y017981D01*
X030758Y017823D02*
X029537Y017823D01*
X029281Y017823D02*
X029204Y017823D01*
X029204Y017981D02*
X029281Y017981D01*
X029281Y018140D02*
X029204Y018140D01*
X028948Y017823D02*
X023474Y017823D01*
X023494Y017981D02*
X028791Y017981D01*
X028723Y018140D02*
X023494Y018140D01*
X023370Y017664D02*
X030758Y017664D01*
X029656Y016891D02*
X029243Y016891D01*
X028781Y016713D02*
X017353Y016713D01*
X017467Y016555D02*
X028880Y016555D01*
X028748Y016872D02*
X003370Y016872D01*
X003540Y017030D02*
X028765Y017030D01*
X029656Y016891D02*
X030243Y016243D01*
X030243Y009686D01*
X029243Y008623D01*
X029237Y008618D01*
X019868Y008618D01*
X014305Y014180D01*
X007618Y014180D01*
X007327Y014019D02*
X005837Y014019D01*
X002739Y015604D02*
X001347Y015604D01*
X001347Y015762D02*
X002650Y015762D01*
X002623Y015921D02*
X001347Y015921D01*
X001347Y016079D02*
X002647Y016079D01*
X002732Y016238D02*
X001347Y016238D01*
X001347Y016396D02*
X002965Y016396D01*
X002865Y016872D02*
X001347Y016872D01*
X001347Y017030D02*
X002695Y017030D01*
X002629Y017189D02*
X001347Y017189D01*
X001347Y017347D02*
X002623Y017347D01*
X002667Y017506D02*
X001347Y017506D01*
X001347Y017664D02*
X002780Y017664D01*
X001347Y021310D02*
X019998Y021310D01*
X020300Y021310D02*
X021967Y021310D01*
X022013Y021329D02*
X021821Y021249D01*
X021673Y021102D01*
X021594Y020909D01*
X021594Y020701D01*
X021673Y020508D01*
X021821Y020361D01*
X022013Y020281D01*
X022222Y020281D01*
X022414Y020361D01*
X022562Y020508D01*
X022641Y020701D01*
X022641Y020909D01*
X022562Y021102D01*
X022414Y021249D01*
X022222Y021329D01*
X022013Y021329D01*
X022268Y021310D02*
X030758Y021310D01*
X030758Y021468D02*
X001347Y021468D01*
X001347Y021627D02*
X030758Y021627D01*
X030758Y021785D02*
X001347Y021785D01*
X001347Y021944D02*
X030758Y021944D01*
X030758Y022102D02*
X001347Y022102D01*
X001347Y022261D02*
X030758Y022261D01*
X030758Y022419D02*
X001347Y022419D01*
X011353Y016713D02*
X013882Y016713D01*
X013904Y016735D02*
X013799Y016629D01*
X013741Y016491D01*
X013741Y015869D01*
X013799Y015731D01*
X013904Y015625D01*
X014043Y015568D01*
X014192Y015568D01*
X014331Y015625D01*
X014436Y015731D01*
X014494Y015869D01*
X014494Y016491D01*
X014436Y016629D01*
X014331Y016735D01*
X014192Y016792D01*
X014043Y016792D01*
X013904Y016735D01*
X013768Y016555D02*
X011467Y016555D01*
X011494Y016396D02*
X013741Y016396D01*
X013741Y016238D02*
X011494Y016238D01*
X011494Y016079D02*
X013741Y016079D01*
X013741Y015921D02*
X011494Y015921D01*
X011449Y015762D02*
X013786Y015762D01*
X013956Y015604D02*
X011279Y015604D01*
X014279Y015604D02*
X014956Y015604D01*
X014904Y015625D02*
X015043Y015568D01*
X015192Y015568D01*
X015331Y015625D01*
X015436Y015731D01*
X015494Y015869D01*
X015494Y016491D01*
X015436Y016629D01*
X015331Y016735D01*
X015192Y016792D01*
X015043Y016792D01*
X014904Y016735D01*
X014799Y016629D01*
X014741Y016491D01*
X014741Y015869D01*
X014799Y015731D01*
X014904Y015625D01*
X014786Y015762D02*
X014449Y015762D01*
X014494Y015921D02*
X014741Y015921D01*
X014741Y016079D02*
X014494Y016079D01*
X014494Y016238D02*
X014741Y016238D01*
X014741Y016396D02*
X014494Y016396D01*
X014467Y016555D02*
X014768Y016555D01*
X014882Y016713D02*
X014353Y016713D01*
X015353Y016713D02*
X015882Y016713D01*
X015904Y016735D02*
X015799Y016629D01*
X015741Y016491D01*
X015741Y015869D01*
X015799Y015731D01*
X015904Y015625D01*
X016043Y015568D01*
X016192Y015568D01*
X016331Y015625D01*
X016436Y015731D01*
X016494Y015869D01*
X016494Y016491D01*
X016436Y016629D01*
X016331Y016735D01*
X016192Y016792D01*
X016043Y016792D01*
X015904Y016735D01*
X015768Y016555D02*
X015467Y016555D01*
X015494Y016396D02*
X015741Y016396D01*
X015741Y016238D02*
X015494Y016238D01*
X015494Y016079D02*
X015741Y016079D01*
X015741Y015921D02*
X015494Y015921D01*
X015449Y015762D02*
X015786Y015762D01*
X015956Y015604D02*
X015279Y015604D01*
X016279Y015604D02*
X016956Y015604D01*
X016786Y015762D02*
X016449Y015762D01*
X016494Y015921D02*
X016741Y015921D01*
X016741Y016079D02*
X016494Y016079D01*
X016494Y016238D02*
X016741Y016238D01*
X016741Y016396D02*
X016494Y016396D01*
X016467Y016555D02*
X016768Y016555D01*
X016882Y016713D02*
X016353Y016713D01*
X017494Y016396D02*
X029807Y016396D01*
X029664Y016555D02*
X029605Y016555D01*
X029950Y016238D02*
X017494Y016238D01*
X014778Y014019D02*
X022924Y014019D01*
X023077Y014177D02*
X014619Y014177D01*
X014461Y014336D02*
X023230Y014336D01*
X022877Y014653D02*
X022358Y014653D01*
X022331Y014625D02*
X022436Y014731D01*
X022494Y014869D01*
X022494Y015491D01*
X022436Y015629D01*
X022331Y015735D01*
X022192Y015792D01*
X022043Y015792D01*
X021904Y015735D01*
X021799Y015629D01*
X021741Y015491D01*
X021741Y014869D01*
X021799Y014731D01*
X021904Y014625D01*
X022043Y014568D01*
X022192Y014568D01*
X022331Y014625D01*
X022470Y014811D02*
X022765Y014811D01*
X022741Y014970D02*
X022494Y014970D01*
X022494Y015128D02*
X022741Y015128D01*
X022741Y015287D02*
X022494Y015287D01*
X022494Y015445D02*
X022741Y015445D01*
X022788Y015604D02*
X022447Y015604D01*
X022266Y015762D02*
X022969Y015762D01*
X021969Y015762D02*
X021266Y015762D01*
X021447Y015604D02*
X021788Y015604D01*
X021741Y015445D02*
X021494Y015445D01*
X021494Y015287D02*
X021741Y015287D01*
X021741Y015128D02*
X021494Y015128D01*
X021494Y014970D02*
X021741Y014970D01*
X021765Y014811D02*
X021470Y014811D01*
X021358Y014653D02*
X021877Y014653D01*
X022771Y013860D02*
X014936Y013860D01*
X015095Y013702D02*
X022618Y013702D01*
X022466Y013543D02*
X015253Y013543D01*
X015412Y013385D02*
X022313Y013385D01*
X022032Y013226D02*
X017703Y013226D01*
X017742Y013210D02*
X017621Y013260D01*
X017489Y013260D01*
X017368Y013210D01*
X017308Y013150D01*
X016927Y013150D01*
X016867Y013210D01*
X016746Y013260D01*
X016614Y013260D01*
X016493Y013210D01*
X016400Y013117D01*
X016350Y012996D01*
X016350Y012864D01*
X016400Y012743D01*
X016493Y012650D01*
X016614Y012600D01*
X016746Y012600D01*
X016867Y012650D01*
X016927Y012710D01*
X017308Y012710D01*
X017368Y012650D01*
X017489Y012600D01*
X017621Y012600D01*
X017742Y012650D01*
X017835Y012743D01*
X017885Y012864D01*
X017885Y012996D01*
X017835Y013117D01*
X017742Y013210D01*
X017855Y013068D02*
X021880Y013068D01*
X021850Y012909D02*
X017885Y012909D01*
X017838Y012751D02*
X021897Y012751D01*
X022180Y012930D02*
X023868Y014680D01*
X024773Y014336D02*
X025023Y014336D01*
X025023Y014177D02*
X024837Y014177D01*
X024837Y014019D02*
X025023Y014019D01*
X025023Y013860D02*
X024837Y013860D01*
X024837Y013702D02*
X025023Y013702D01*
X025023Y013543D02*
X024837Y013543D01*
X024837Y013385D02*
X025023Y013385D01*
X025023Y013226D02*
X024837Y013226D01*
X024837Y013068D02*
X025023Y013068D01*
X025023Y012909D02*
X024837Y012909D01*
X024837Y012751D02*
X025023Y012751D01*
X025023Y012592D02*
X024837Y012592D01*
X024837Y012434D02*
X025023Y012434D01*
X025023Y012275D02*
X024837Y012275D01*
X024837Y012117D02*
X025023Y012117D01*
X025023Y011958D02*
X024837Y011958D01*
X024837Y011800D02*
X025023Y011800D01*
X025023Y011641D02*
X024837Y011641D01*
X024837Y011483D02*
X025023Y011483D01*
X025023Y011324D02*
X024837Y011324D01*
X024837Y011166D02*
X025023Y011166D01*
X023993Y010930D02*
X023993Y013180D01*
X023682Y013068D02*
X022618Y013068D01*
X022510Y012909D02*
X023773Y012909D01*
X023773Y012751D02*
X022463Y012751D01*
X022771Y013226D02*
X023663Y013226D01*
X023730Y013385D02*
X022924Y013385D01*
X023773Y012592D02*
X016204Y012592D01*
X016046Y012751D02*
X016397Y012751D01*
X016350Y012909D02*
X015887Y012909D01*
X015729Y013068D02*
X016380Y013068D01*
X016532Y013226D02*
X015570Y013226D01*
X015265Y012909D02*
X001347Y012909D01*
X001347Y012751D02*
X015423Y012751D01*
X015106Y013068D02*
X001347Y013068D01*
X001347Y013226D02*
X014948Y013226D01*
X015805Y012369D02*
X019648Y008526D01*
X019703Y008471D02*
X015805Y008471D01*
X015805Y008313D02*
X028854Y008313D01*
X029372Y009105D02*
X029394Y009105D01*
X029518Y009581D02*
X029841Y009581D01*
X029990Y009739D02*
X029669Y009739D01*
X029735Y009898D02*
X030023Y009898D01*
X030023Y010056D02*
X029737Y010056D01*
X029689Y010215D02*
X030023Y010215D01*
X030023Y010373D02*
X029570Y010373D01*
X030023Y012117D02*
X025462Y012117D01*
X025462Y012275D02*
X029115Y012275D01*
X029144Y012263D02*
X029341Y012263D01*
X029523Y012338D01*
X029662Y012477D01*
X029737Y012659D01*
X029737Y012856D01*
X029662Y013037D01*
X029523Y013176D01*
X029341Y013252D01*
X029144Y013252D01*
X028962Y013176D01*
X028823Y013037D01*
X028748Y012856D01*
X028748Y012659D01*
X028823Y012477D01*
X028962Y012338D01*
X029144Y012263D01*
X029370Y012275D02*
X030023Y012275D01*
X030023Y012434D02*
X029618Y012434D01*
X029709Y012592D02*
X030023Y012592D01*
X030023Y012751D02*
X029737Y012751D01*
X029715Y012909D02*
X030023Y012909D01*
X030023Y013068D02*
X029631Y013068D01*
X029403Y013226D02*
X030023Y013226D01*
X030023Y013385D02*
X025462Y013385D01*
X025462Y013543D02*
X030023Y013543D01*
X030023Y013702D02*
X029487Y013702D01*
X029523Y013716D02*
X029341Y013641D01*
X029144Y013641D01*
X028962Y013716D01*
X028823Y013855D01*
X028748Y014037D01*
X028748Y014234D01*
X028823Y014415D01*
X028962Y014554D01*
X029144Y014630D01*
X029341Y014630D01*
X029523Y014554D01*
X029662Y014415D01*
X029737Y014234D01*
X029737Y014037D01*
X029662Y013855D01*
X029523Y013716D01*
X029664Y013860D02*
X030023Y013860D01*
X030023Y014019D02*
X029729Y014019D01*
X029737Y014177D02*
X030023Y014177D01*
X030023Y014336D02*
X029695Y014336D01*
X029583Y014494D02*
X030023Y014494D01*
X030023Y014653D02*
X025462Y014653D01*
X025462Y014494D02*
X028902Y014494D01*
X028790Y014336D02*
X025462Y014336D01*
X025462Y014177D02*
X028748Y014177D01*
X028756Y014019D02*
X025462Y014019D01*
X025462Y013860D02*
X028821Y013860D01*
X028998Y013702D02*
X025462Y013702D01*
X025462Y013226D02*
X029082Y013226D01*
X028854Y013068D02*
X025462Y013068D01*
X025462Y012909D02*
X028770Y012909D01*
X028748Y012751D02*
X025462Y012751D01*
X025462Y012592D02*
X028776Y012592D01*
X028867Y012434D02*
X025462Y012434D01*
X023773Y012434D02*
X016363Y012434D01*
X016521Y012275D02*
X023773Y012275D01*
X023773Y012117D02*
X016680Y012117D01*
X016838Y011958D02*
X023773Y011958D01*
X023773Y011800D02*
X016997Y011800D01*
X017155Y011641D02*
X023773Y011641D01*
X023773Y011483D02*
X017314Y011483D01*
X017008Y011166D02*
X015805Y011166D01*
X015805Y011324D02*
X016850Y011324D01*
X016691Y011483D02*
X015805Y011483D01*
X015805Y011641D02*
X016533Y011641D01*
X016374Y011800D02*
X015805Y011800D01*
X015805Y011958D02*
X016216Y011958D01*
X016057Y012117D02*
X015805Y012117D01*
X015805Y012275D02*
X015899Y012275D01*
X015805Y012369D02*
X015805Y005618D01*
X015805Y005777D02*
X028748Y005777D01*
X028748Y005935D02*
X015805Y005935D01*
X015805Y006094D02*
X028801Y006094D01*
X028928Y006252D02*
X015805Y006252D01*
X015805Y006728D02*
X023107Y006728D01*
X022949Y006886D02*
X015805Y006886D01*
X015805Y007045D02*
X022868Y007045D01*
X022821Y007203D02*
X015805Y007203D01*
X015805Y007362D02*
X022821Y007362D01*
X022860Y007520D02*
X015805Y007520D01*
X015805Y007679D02*
X022929Y007679D01*
X023087Y007837D02*
X015805Y007837D01*
X015805Y009264D02*
X018910Y009264D01*
X018752Y009422D02*
X015805Y009422D01*
X015805Y009581D02*
X018593Y009581D01*
X018435Y009739D02*
X015805Y009739D01*
X015805Y009898D02*
X018276Y009898D01*
X018118Y010056D02*
X015805Y010056D01*
X015805Y010215D02*
X017959Y010215D01*
X017801Y010373D02*
X015805Y010373D01*
X015805Y010532D02*
X017642Y010532D01*
X017484Y010690D02*
X015805Y010690D01*
X015805Y010849D02*
X017325Y010849D01*
X017167Y011007D02*
X015805Y011007D01*
X016680Y012930D02*
X017555Y012930D01*
X017407Y013226D02*
X016828Y013226D01*
X015180Y019430D02*
X015180Y020680D01*
X020440Y020359D02*
X021826Y020359D01*
X021670Y020517D02*
X020597Y020517D01*
X020662Y020676D02*
X021604Y020676D01*
X021594Y020834D02*
X020673Y020834D01*
X020638Y020993D02*
X021628Y020993D01*
X021723Y021151D02*
X020544Y021151D01*
X022512Y021151D02*
X030758Y021151D01*
X030758Y020993D02*
X022607Y020993D01*
X022641Y020834D02*
X030758Y020834D01*
X030758Y020676D02*
X022631Y020676D01*
X022565Y020517D02*
X030758Y020517D01*
X030758Y020359D02*
X022409Y020359D01*
X025243Y021680D02*
X025430Y021493D01*
X026493Y021118D01*
X029204Y018615D02*
X029281Y018615D01*
X029281Y018457D02*
X029204Y018457D01*
X029652Y018615D02*
X030758Y018615D01*
X030758Y018457D02*
X029743Y018457D01*
X030023Y014811D02*
X025423Y014811D01*
D20*
X025243Y021680D02*
X005430Y021680D01*
M02*
